<svg xmlns="http://www.w3.org/2000/svg" viewBox="0 0 664 278">
<path d="M 476,210 L 475,211 L 475,222 L 474,223 L 474,225 L 472,227 L 471,227 L 470,228 L 467,228 L 467,229 L 486,229 L 485,228 L 482,228 L 478,224 L 478,221 L 477,220 L 477,210 Z" fill="black"/><path d="M 18,209 L 18,223 L 17,224 L 17,225 L 15,227 L 13,227 L 12,228 L 10,228 L 11,229 L 14,229 L 15,228 L 25,228 L 26,229 L 28,229 L 29,228 L 27,228 L 26,227 L 24,227 L 22,225 L 22,224 L 21,223 L 21,210 L 20,210 L 19,209 Z" fill="black"/><path d="M 597,208 L 596,209 L 595,209 L 595,210 L 594,211 L 594,212 L 593,213 L 593,214 L 592,215 L 592,217 L 591,218 L 591,219 L 590,220 L 590,221 L 589,222 L 589,223 L 585,227 L 584,227 L 583,228 L 582,228 L 582,229 L 598,229 L 598,228 L 597,228 L 596,227 L 595,227 L 594,226 L 594,225 L 593,224 L 593,223 L 592,222 L 593,221 L 593,219 L 594,218 L 594,217 L 595,216 L 595,214 L 596,213 L 596,212 L 597,211 L 597,210 L 598,209 Z" fill="black"/><path d="M 81,203 L 81,222 L 80,223 L 80,224 L 77,227 L 76,227 L 75,228 L 76,229 L 77,229 L 78,228 L 100,228 L 101,229 L 103,229 L 104,228 L 103,228 L 102,227 L 101,227 L 98,224 L 98,220 L 97,219 L 97,213 L 96,212 L 96,211 L 95,210 L 95,209 L 92,206 L 91,206 L 90,205 L 89,205 L 88,204 L 87,204 L 86,203 Z" fill="black"/><path d="M 257,202 L 257,221 L 256,222 L 256,224 L 252,228 L 251,228 L 251,229 L 280,229 L 280,228 L 278,228 L 275,225 L 275,224 L 274,223 L 274,216 L 273,215 L 273,211 L 272,210 L 272,209 L 267,204 L 266,204 L 265,203 L 263,203 L 262,202 Z" fill="black"/><path d="M 385,201 L 384,202 L 381,202 L 380,203 L 378,203 L 376,205 L 375,205 L 373,207 L 373,208 L 372,209 L 372,210 L 371,211 L 371,220 L 370,221 L 370,224 L 369,225 L 369,226 L 368,227 L 367,227 L 366,228 L 365,228 L 365,229 L 419,229 L 420,228 L 420,214 L 419,213 L 417,213 L 417,221 L 416,222 L 416,224 L 413,227 L 388,227 L 387,226 L 387,202 L 386,201 Z" fill="black"/><path d="M 610,200 L 609,201 L 607,201 L 604,204 L 604,205 L 603,206 L 603,209 L 604,210 L 604,211 L 607,214 L 608,214 L 609,215 L 611,215 L 612,214 L 614,214 L 617,211 L 617,205 L 616,204 L 616,203 L 615,202 L 614,202 L 613,201 L 611,201 Z" fill="black"/><path d="M 87,186 L 86,187 L 85,187 L 83,189 L 83,190 L 82,191 L 82,195 L 83,196 L 83,197 L 85,199 L 86,199 L 87,200 L 91,200 L 92,199 L 93,199 L 96,196 L 96,190 L 93,187 L 92,187 L 91,186 Z" fill="black"/><path d="M 502,185 L 501,186 L 500,186 L 498,188 L 498,190 L 497,191 L 497,193 L 498,194 L 498,196 L 500,198 L 501,198 L 502,199 L 507,199 L 509,197 L 510,197 L 510,196 L 511,195 L 511,193 L 512,192 L 511,191 L 511,189 L 510,188 L 510,187 L 509,187 L 507,185 Z" fill="black"/><path d="M 376,185 L 372,189 L 372,194 L 373,195 L 373,196 L 375,198 L 377,198 L 378,199 L 381,199 L 382,198 L 383,198 L 385,196 L 385,195 L 386,194 L 386,190 L 385,189 L 385,188 L 382,185 Z" fill="black"/><path d="M 263,185 L 262,186 L 261,186 L 259,188 L 259,190 L 258,191 L 258,193 L 259,194 L 259,195 L 260,196 L 260,197 L 261,197 L 262,198 L 263,198 L 264,199 L 267,199 L 268,198 L 269,198 L 272,195 L 272,189 L 271,188 L 271,187 L 270,186 L 269,186 L 268,185 Z" fill="black"/><path d="M 405,179 L 405,183 L 404,184 L 404,185 L 403,186 L 403,187 L 402,188 L 401,188 L 400,189 L 394,189 L 392,191 L 398,191 L 399,192 L 401,192 L 404,195 L 404,197 L 405,198 L 405,202 L 406,202 L 407,201 L 407,179 Z" fill="black"/><path d="M 617,156 L 616,157 L 616,159 L 615,160 L 615,161 L 614,162 L 614,163 L 613,164 L 613,166 L 612,167 L 612,168 L 611,169 L 611,171 L 610,172 L 610,175 L 611,176 L 611,178 L 612,179 L 612,180 L 613,181 L 613,183 L 614,184 L 614,185 L 615,186 L 615,187 L 616,188 L 616,190 L 617,191 L 617,192 L 618,193 L 618,194 L 619,195 L 619,197 L 620,198 L 620,199 L 621,200 L 621,201 L 622,202 L 622,204 L 623,205 L 623,206 L 624,207 L 624,209 L 625,210 L 625,211 L 626,212 L 626,213 L 627,214 L 627,216 L 628,217 L 628,218 L 629,219 L 629,221 L 631,223 L 631,224 L 634,227 L 635,227 L 636,228 L 638,228 L 639,229 L 655,229 L 655,228 L 654,228 L 652,226 L 651,226 L 648,223 L 648,222 L 647,221 L 647,220 L 646,219 L 646,218 L 645,217 L 645,215 L 644,214 L 644,213 L 643,212 L 643,210 L 642,209 L 642,208 L 641,207 L 641,205 L 640,204 L 640,203 L 639,202 L 639,201 L 638,200 L 638,198 L 637,197 L 637,196 L 636,195 L 636,193 L 635,192 L 635,191 L 634,190 L 634,189 L 633,188 L 633,186 L 632,185 L 632,184 L 631,183 L 631,182 L 630,181 L 630,179 L 629,178 L 629,177 L 628,176 L 628,175 L 627,174 L 627,172 L 626,171 L 626,170 L 625,169 L 625,167 L 624,166 L 624,165 L 623,164 L 623,163 L 622,162 L 622,160 L 621,159 L 621,158 L 620,157 L 620,156 Z" fill="black"/><path d="M 169,156 L 168,157 L 165,157 L 164,158 L 163,158 L 162,159 L 161,159 L 160,160 L 159,160 L 158,161 L 157,161 L 150,168 L 150,169 L 148,171 L 148,172 L 147,173 L 147,174 L 146,175 L 146,176 L 145,177 L 145,183 L 146,184 L 146,186 L 148,188 L 148,189 L 149,189 L 151,191 L 152,191 L 153,192 L 155,192 L 156,193 L 160,193 L 161,192 L 161,180 L 162,179 L 162,175 L 163,174 L 163,171 L 164,170 L 164,169 L 165,168 L 165,167 L 166,166 L 166,165 L 167,164 L 167,163 L 171,159 L 172,159 L 173,158 L 176,158 L 177,157 L 178,157 L 179,158 L 181,158 L 182,159 L 183,159 L 188,164 L 188,165 L 189,166 L 189,167 L 190,168 L 190,169 L 191,170 L 191,172 L 192,173 L 192,177 L 193,178 L 193,185 L 194,186 L 194,201 L 193,202 L 193,207 L 192,208 L 192,211 L 191,212 L 191,214 L 190,215 L 190,216 L 189,217 L 189,218 L 188,219 L 188,220 L 186,222 L 186,223 L 184,225 L 183,225 L 182,226 L 181,226 L 180,227 L 174,227 L 173,226 L 172,226 L 166,220 L 166,219 L 165,218 L 165,217 L 164,216 L 164,214 L 163,213 L 163,211 L 162,210 L 162,207 L 161,206 L 161,204 L 160,203 L 160,202 L 158,200 L 158,199 L 157,199 L 155,197 L 154,197 L 153,196 L 152,196 L 151,195 L 148,195 L 147,194 L 143,194 L 143,202 L 144,203 L 144,207 L 145,208 L 145,209 L 146,210 L 146,211 L 147,212 L 147,213 L 149,215 L 149,216 L 155,222 L 156,222 L 158,224 L 159,224 L 160,225 L 161,225 L 162,226 L 163,226 L 164,227 L 166,227 L 167,228 L 170,228 L 171,229 L 183,229 L 184,228 L 188,228 L 189,227 L 191,227 L 192,226 L 194,226 L 196,224 L 197,224 L 199,222 L 200,222 L 204,218 L 204,217 L 206,215 L 206,214 L 208,212 L 208,210 L 209,209 L 209,208 L 210,207 L 210,204 L 211,203 L 211,195 L 212,194 L 212,193 L 211,192 L 211,183 L 210,182 L 210,179 L 209,178 L 209,177 L 208,176 L 208,174 L 207,173 L 207,172 L 206,171 L 206,170 L 203,167 L 203,166 L 200,163 L 199,163 L 196,160 L 195,160 L 194,159 L 193,159 L 192,158 L 190,158 L 189,157 L 187,157 L 186,156 Z" fill="black"/><path d="M 89,156 L 88,157 L 86,157 L 85,158 L 84,158 L 81,161 L 81,162 L 80,163 L 80,164 L 79,165 L 79,167 L 78,168 L 78,169 L 77,170 L 77,171 L 76,172 L 76,174 L 75,175 L 75,176 L 74,177 L 74,178 L 73,179 L 73,180 L 72,181 L 72,184 L 73,185 L 71,187 L 72,188 L 72,187 L 73,186 L 73,185 L 74,184 L 74,182 L 75,181 L 75,180 L 76,179 L 76,178 L 77,177 L 77,175 L 78,174 L 78,173 L 79,172 L 79,171 L 80,170 L 81,171 L 81,173 L 82,174 L 82,175 L 83,176 L 83,177 L 86,180 L 87,180 L 89,182 L 91,182 L 92,183 L 97,183 L 97,165 L 98,164 L 98,161 L 99,160 L 99,159 L 100,158 L 101,158 L 102,157 L 103,157 L 103,156 Z" fill="black"/><path d="M 524,155 L 523,156 L 524,157 L 528,157 L 531,160 L 531,162 L 532,163 L 532,214 L 531,215 L 528,212 L 528,211 L 526,209 L 526,208 L 522,204 L 521,204 L 520,203 L 519,203 L 518,202 L 515,202 L 514,201 L 513,201 L 512,202 L 508,202 L 507,203 L 506,203 L 505,204 L 504,204 L 503,205 L 505,207 L 505,208 L 507,210 L 507,211 L 510,214 L 510,215 L 513,218 L 513,219 L 516,222 L 516,223 L 519,226 L 520,226 L 522,228 L 524,228 L 525,229 L 540,229 L 540,228 L 538,228 L 536,226 L 536,225 L 535,224 L 535,223 L 534,222 L 534,163 L 535,162 L 535,160 L 538,157 L 541,157 L 542,156 L 542,155 L 537,155 L 536,156 L 530,156 L 529,155 Z" fill="black"/><path d="M 470,155 L 469,156 L 470,157 L 471,157 L 474,160 L 474,161 L 475,162 L 475,185 L 477,187 L 477,171 L 478,170 L 479,170 L 480,171 L 480,172 L 482,174 L 482,175 L 489,182 L 491,182 L 492,183 L 498,183 L 499,182 L 501,182 L 502,181 L 503,181 L 504,180 L 505,180 L 505,178 L 503,176 L 503,175 L 501,173 L 501,172 L 498,169 L 498,168 L 495,165 L 495,164 L 488,157 L 487,157 L 486,156 L 472,156 L 471,155 Z" fill="black"/><path d="M 365,155 L 364,156 L 365,157 L 367,157 L 369,159 L 369,160 L 370,161 L 370,163 L 371,164 L 371,182 L 376,182 L 377,181 L 378,181 L 379,180 L 380,180 L 381,179 L 382,179 L 385,176 L 385,175 L 386,174 L 386,173 L 387,172 L 387,159 L 389,157 L 411,157 L 412,158 L 413,158 L 416,161 L 416,162 L 417,163 L 417,171 L 418,172 L 419,172 L 420,171 L 420,157 L 419,156 L 367,156 L 366,155 Z" fill="black"/><path d="M 252,155 L 251,156 L 252,157 L 253,157 L 256,160 L 256,161 L 257,162 L 257,171 L 258,172 L 258,173 L 259,174 L 259,175 L 260,176 L 260,177 L 261,178 L 262,178 L 264,180 L 265,180 L 266,181 L 269,181 L 270,182 L 273,182 L 274,181 L 274,159 L 276,157 L 284,157 L 285,158 L 287,158 L 292,163 L 292,164 L 293,165 L 293,166 L 294,167 L 294,169 L 295,170 L 295,177 L 294,178 L 294,180 L 293,181 L 293,182 L 292,183 L 292,184 L 288,188 L 287,188 L 286,189 L 282,189 L 281,190 L 280,190 L 279,191 L 281,191 L 282,192 L 283,192 L 284,193 L 285,193 L 286,194 L 286,195 L 287,196 L 287,197 L 288,198 L 288,199 L 289,200 L 289,202 L 290,203 L 290,205 L 291,206 L 291,208 L 292,209 L 292,211 L 293,212 L 293,214 L 294,215 L 294,216 L 295,217 L 295,219 L 296,220 L 296,221 L 298,223 L 298,224 L 300,226 L 301,226 L 303,228 L 305,228 L 306,229 L 323,229 L 322,228 L 321,228 L 320,227 L 319,227 L 316,224 L 316,223 L 313,220 L 313,219 L 312,218 L 312,216 L 311,215 L 311,213 L 310,212 L 310,210 L 309,209 L 309,207 L 308,206 L 308,204 L 307,203 L 307,202 L 306,201 L 306,199 L 305,198 L 305,197 L 304,196 L 304,195 L 303,194 L 302,194 L 300,192 L 299,192 L 298,191 L 300,189 L 302,189 L 303,188 L 304,188 L 305,187 L 306,187 L 310,183 L 310,182 L 311,181 L 311,180 L 312,179 L 312,169 L 311,168 L 311,166 L 306,161 L 305,161 L 303,159 L 301,159 L 300,158 L 299,158 L 298,157 L 294,157 L 293,156 L 254,156 L 253,155 Z" fill="black"/><path d="M 13,155 L 12,156 L 13,157 L 15,157 L 17,159 L 17,160 L 18,161 L 18,192 L 19,193 L 19,194 L 20,195 L 21,195 L 21,172 L 22,171 L 24,173 L 24,174 L 25,175 L 25,176 L 26,177 L 26,178 L 27,179 L 27,181 L 28,182 L 28,183 L 29,184 L 29,185 L 31,187 L 31,189 L 32,190 L 32,191 L 33,192 L 33,193 L 34,194 L 34,195 L 35,196 L 35,197 L 36,198 L 36,199 L 37,200 L 37,201 L 38,202 L 38,203 L 39,204 L 39,205 L 40,206 L 40,207 L 41,208 L 41,209 L 42,210 L 42,211 L 43,212 L 43,213 L 44,214 L 44,215 L 45,216 L 45,217 L 46,218 L 46,219 L 47,220 L 47,221 L 48,222 L 48,223 L 49,224 L 49,225 L 50,226 L 50,227 L 51,228 L 51,229 L 53,229 L 55,227 L 55,225 L 56,224 L 56,223 L 57,222 L 57,221 L 58,220 L 58,218 L 59,217 L 59,216 L 60,215 L 60,214 L 61,213 L 61,212 L 62,211 L 62,209 L 63,208 L 63,207 L 64,206 L 64,205 L 65,204 L 65,203 L 66,202 L 66,201 L 67,200 L 67,198 L 68,197 L 67,196 L 67,195 L 66,195 L 66,196 L 65,197 L 65,198 L 64,199 L 64,201 L 63,202 L 63,203 L 62,204 L 62,205 L 61,206 L 61,207 L 60,208 L 59,208 L 58,207 L 58,206 L 57,205 L 57,204 L 56,203 L 56,202 L 55,201 L 55,200 L 54,199 L 54,198 L 53,197 L 53,196 L 52,195 L 52,194 L 51,193 L 51,192 L 50,191 L 50,189 L 49,188 L 49,187 L 48,186 L 48,185 L 47,184 L 47,183 L 46,182 L 46,181 L 45,180 L 45,179 L 44,178 L 44,177 L 43,176 L 43,175 L 42,174 L 42,173 L 41,172 L 41,171 L 40,170 L 40,169 L 39,168 L 39,167 L 38,166 L 38,165 L 37,164 L 37,163 L 35,161 L 35,160 L 34,159 L 33,159 L 31,157 L 30,157 L 29,156 L 15,156 L 14,155 Z" fill="black"/><path d="M 345,104 L 344,105 L 344,116 L 343,117 L 343,118 L 342,119 L 341,119 L 340,120 L 337,120 L 336,121 L 337,122 L 345,122 L 346,121 L 347,122 L 354,122 L 355,121 L 354,121 L 353,120 L 350,120 L 348,118 L 348,117 L 347,116 L 347,111 L 346,110 L 346,104 Z" fill="black"/><path d="M 483,101 L 481,103 L 481,105 L 480,106 L 480,107 L 479,108 L 479,110 L 478,111 L 478,112 L 477,113 L 477,114 L 476,115 L 476,116 L 473,119 L 472,119 L 470,121 L 469,121 L 469,122 L 484,122 L 484,121 L 479,116 L 479,114 L 480,113 L 480,112 L 481,111 L 481,109 L 482,108 L 482,107 L 483,106 L 483,104 L 484,103 L 484,101 Z" fill="black"/><path d="M 138,101 L 136,103 L 136,104 L 135,105 L 135,106 L 134,107 L 134,109 L 133,110 L 133,111 L 132,112 L 132,113 L 131,114 L 131,115 L 126,120 L 125,120 L 124,121 L 123,121 L 123,122 L 139,122 L 139,121 L 138,121 L 134,117 L 134,113 L 135,112 L 135,110 L 136,109 L 136,108 L 137,107 L 137,106 L 138,105 L 138,103 L 139,102 L 139,101 Z" fill="black"/><path d="M 407,96 L 407,114 L 406,115 L 406,117 L 403,120 L 401,120 L 401,122 L 406,122 L 407,121 L 413,121 L 414,122 L 428,122 L 429,121 L 429,120 L 427,120 L 424,117 L 424,115 L 423,114 L 423,107 L 422,106 L 422,104 L 421,103 L 421,102 L 418,99 L 417,99 L 416,98 L 415,98 L 414,97 L 413,97 L 412,96 Z" fill="black"/><path d="M 242,95 L 242,115 L 241,116 L 241,117 L 240,118 L 240,119 L 239,120 L 238,120 L 237,121 L 236,121 L 236,122 L 291,122 L 291,106 L 289,106 L 289,113 L 288,114 L 288,116 L 284,120 L 260,120 L 259,119 L 259,107 L 258,106 L 258,104 L 257,103 L 257,102 L 255,100 L 255,99 L 254,99 L 251,96 L 249,96 L 248,95 Z" fill="black"/><path d="M 494,94 L 491,97 L 491,98 L 490,99 L 490,102 L 491,103 L 491,104 L 492,105 L 492,106 L 493,106 L 494,107 L 495,107 L 496,108 L 498,108 L 499,107 L 501,107 L 503,105 L 503,104 L 504,103 L 504,98 L 503,97 L 503,96 L 502,95 L 501,95 L 500,94 Z" fill="black"/><path d="M 148,94 L 145,97 L 145,104 L 148,107 L 150,107 L 151,108 L 153,108 L 154,107 L 155,107 L 158,104 L 158,103 L 159,102 L 159,100 L 158,99 L 158,97 L 155,94 Z" fill="black"/><path d="M 413,79 L 412,80 L 411,80 L 409,82 L 409,83 L 408,84 L 408,88 L 409,89 L 409,90 L 411,92 L 412,92 L 413,93 L 417,93 L 418,92 L 419,92 L 421,90 L 421,89 L 422,88 L 422,84 L 421,83 L 421,82 L 419,80 L 418,80 L 417,79 Z" fill="black"/><path d="M 250,77 L 249,78 L 247,78 L 244,81 L 244,88 L 247,91 L 249,91 L 250,92 L 251,92 L 252,91 L 254,91 L 257,88 L 257,87 L 258,86 L 258,84 L 257,83 L 257,81 L 254,78 L 252,78 L 251,77 Z" fill="black"/><path d="M 504,49 L 503,50 L 503,51 L 502,52 L 502,54 L 501,55 L 501,56 L 500,57 L 500,59 L 499,60 L 499,61 L 498,62 L 498,64 L 497,65 L 497,68 L 498,69 L 498,71 L 499,72 L 499,73 L 500,74 L 500,76 L 501,77 L 501,78 L 502,79 L 502,80 L 503,81 L 503,83 L 504,84 L 504,85 L 505,86 L 505,88 L 506,89 L 506,90 L 507,91 L 507,92 L 508,93 L 508,95 L 509,96 L 509,97 L 510,98 L 510,99 L 511,100 L 511,102 L 512,103 L 512,104 L 513,105 L 513,107 L 514,108 L 514,109 L 515,110 L 515,111 L 516,112 L 516,114 L 518,116 L 518,117 L 521,120 L 522,120 L 523,121 L 525,121 L 526,122 L 542,122 L 542,121 L 541,121 L 539,119 L 538,119 L 535,116 L 535,115 L 534,114 L 534,113 L 533,112 L 533,111 L 532,110 L 532,108 L 531,107 L 531,106 L 530,105 L 530,103 L 529,102 L 529,101 L 528,100 L 528,99 L 527,98 L 527,96 L 526,95 L 526,94 L 525,93 L 525,92 L 524,91 L 524,89 L 523,88 L 523,87 L 522,86 L 522,85 L 521,84 L 521,82 L 520,81 L 520,80 L 519,79 L 519,77 L 518,76 L 518,75 L 517,74 L 517,72 L 516,71 L 516,70 L 515,69 L 515,68 L 514,67 L 514,65 L 513,64 L 513,63 L 512,62 L 512,60 L 511,59 L 511,58 L 510,57 L 510,56 L 509,55 L 509,53 L 508,52 L 508,51 L 507,50 L 507,49 Z" fill="black"/><path d="M 415,49 L 414,50 L 412,50 L 411,51 L 410,51 L 407,54 L 407,55 L 406,56 L 406,57 L 405,58 L 405,59 L 404,60 L 404,61 L 403,62 L 403,64 L 402,65 L 402,66 L 401,67 L 401,68 L 400,69 L 400,70 L 399,71 L 399,73 L 398,74 L 398,77 L 399,77 L 400,76 L 400,75 L 401,74 L 401,73 L 402,72 L 402,70 L 403,69 L 403,68 L 404,67 L 404,66 L 405,65 L 405,64 L 406,63 L 407,64 L 407,66 L 408,67 L 408,68 L 409,69 L 409,70 L 412,73 L 413,73 L 414,74 L 415,74 L 416,75 L 418,75 L 419,76 L 423,76 L 423,57 L 424,56 L 424,54 L 425,53 L 425,52 L 427,50 L 429,50 L 429,49 Z" fill="black"/><path d="M 338,49 L 339,50 L 341,50 L 343,52 L 343,53 L 344,54 L 344,82 L 345,83 L 345,86 L 346,86 L 346,65 L 347,64 L 348,64 L 349,65 L 349,66 L 350,67 L 350,68 L 351,69 L 351,70 L 352,71 L 352,72 L 353,73 L 353,74 L 354,75 L 354,76 L 355,77 L 355,78 L 356,79 L 356,80 L 357,81 L 357,82 L 358,83 L 358,84 L 359,85 L 359,86 L 360,87 L 360,88 L 361,89 L 361,90 L 362,91 L 362,92 L 363,93 L 363,94 L 364,95 L 364,96 L 365,97 L 365,98 L 366,99 L 366,100 L 367,101 L 367,102 L 368,103 L 368,104 L 369,105 L 369,106 L 370,107 L 370,109 L 371,110 L 371,111 L 372,112 L 372,113 L 373,114 L 373,115 L 374,116 L 374,117 L 375,118 L 375,119 L 376,120 L 376,121 L 377,122 L 379,122 L 380,121 L 380,120 L 381,119 L 381,118 L 382,117 L 382,116 L 383,115 L 383,113 L 384,112 L 384,111 L 385,110 L 385,109 L 386,108 L 386,107 L 387,106 L 387,104 L 388,103 L 388,102 L 389,101 L 389,100 L 390,99 L 390,97 L 391,96 L 391,95 L 392,94 L 392,93 L 393,92 L 393,90 L 394,89 L 394,88 L 393,88 L 392,87 L 392,89 L 391,90 L 391,91 L 390,92 L 390,93 L 389,94 L 389,96 L 388,97 L 388,98 L 387,99 L 387,100 L 386,101 L 385,101 L 384,100 L 384,99 L 383,98 L 383,97 L 382,96 L 382,95 L 381,94 L 381,93 L 380,92 L 380,91 L 379,90 L 379,89 L 378,88 L 378,87 L 377,86 L 377,85 L 376,84 L 376,83 L 375,82 L 375,81 L 374,80 L 374,79 L 373,78 L 373,77 L 372,76 L 372,75 L 371,74 L 371,72 L 370,71 L 370,70 L 369,69 L 369,68 L 368,67 L 368,66 L 367,65 L 367,64 L 366,63 L 366,62 L 365,61 L 365,60 L 364,59 L 364,58 L 363,57 L 363,56 L 357,50 L 356,50 L 355,49 Z" fill="black"/><path d="M 236,49 L 237,50 L 239,50 L 241,52 L 241,53 L 242,54 L 242,62 L 243,63 L 243,66 L 244,67 L 244,68 L 248,72 L 249,72 L 250,73 L 251,73 L 252,74 L 256,74 L 257,75 L 258,75 L 259,74 L 259,55 L 260,54 L 260,52 L 262,50 L 264,50 L 265,49 Z" fill="black"/><path d="M 158,49 L 158,50 L 157,51 L 157,52 L 156,53 L 156,55 L 155,56 L 155,57 L 154,58 L 154,60 L 153,61 L 153,62 L 152,63 L 152,64 L 151,65 L 151,68 L 152,69 L 152,70 L 153,71 L 153,72 L 154,73 L 154,75 L 155,76 L 155,77 L 156,78 L 156,79 L 157,80 L 157,82 L 158,83 L 158,84 L 159,85 L 159,87 L 160,88 L 160,89 L 161,90 L 161,92 L 162,93 L 162,94 L 163,95 L 163,96 L 164,97 L 164,99 L 165,100 L 165,101 L 166,102 L 166,103 L 167,104 L 167,106 L 168,107 L 168,108 L 169,109 L 169,111 L 170,112 L 170,113 L 171,114 L 171,115 L 173,117 L 173,118 L 174,119 L 175,119 L 177,121 L 179,121 L 180,122 L 196,122 L 196,121 L 195,120 L 194,120 L 188,114 L 188,112 L 187,111 L 187,110 L 186,109 L 186,108 L 185,107 L 185,105 L 184,104 L 184,103 L 183,102 L 183,100 L 182,99 L 182,98 L 181,97 L 181,95 L 180,94 L 180,93 L 179,92 L 179,91 L 178,90 L 178,88 L 177,87 L 177,86 L 176,85 L 176,83 L 175,82 L 175,81 L 174,80 L 174,79 L 173,78 L 173,76 L 172,75 L 172,74 L 171,73 L 171,71 L 170,70 L 170,69 L 169,68 L 169,67 L 168,66 L 168,64 L 167,63 L 167,62 L 166,61 L 166,60 L 165,59 L 165,57 L 164,56 L 164,55 L 163,54 L 163,52 L 162,51 L 162,50 L 161,49 Z" fill="black"/><path d="M 0,0 L 0,277 Z" fill="black"/>
</svg>