<?xml version="1.0" standalone="no"?>
<!DOCTYPE svg PUBLIC "-//W3C//DTD SVG 20010904//EN"
 "http://www.w3.org/TR/2001/REC-SVG-20010904/DTD/svg10.dtd">
<svg version="1.0" xmlns="http://www.w3.org/2000/svg"
 width="2048.000000pt" height="2176.000000pt" viewBox="0 0 2048.000000 2176.000000"
 preserveAspectRatio="xMidYMid meet">

<g transform="translate(0.000000,2176.000000) scale(0.100000,-0.100000)"
fill="#000000" stroke="none">
<path d="M9952 15759 c-13 -5 -47 -33 -76 -61 -29 -29 -111 -107 -182 -173
-174 -161 -262 -269 -328 -400 -37 -74 -60 -169 -50 -214 15 -66 50 -160 79
-210 18 -31 46 -81 62 -111 47 -87 56 -103 83 -140 14 -19 32 -48 40 -65 8
-16 27 -47 43 -67 16 -21 39 -57 51 -80 13 -24 47 -86 76 -138 29 -52 70 -127
92 -167 31 -58 48 -77 85 -97 25 -15 47 -26 49 -26 2 0 21 26 42 58 21 31 67
98 102 147 177 250 208 292 267 362 75 87 93 111 93 122 0 6 4 11 10 11 5 0
28 24 50 53 22 28 51 65 63 81 46 60 171 243 199 294 l30 52 -21 43 c-25 49
-35 66 -114 181 -33 48 -65 89 -71 94 -7 4 -21 19 -31 35 -9 15 -23 27 -31 27
-7 0 -17 6 -21 13 -14 23 -205 192 -263 232 -111 78 -146 101 -200 127 -57 29
-89 33 -128 17z m413 -389 c3 -5 1 -10 -4 -10 -6 0 -11 5 -11 10 0 6 2 10 4
10 3 0 8 -4 11 -10z m55 -60 c23 -18 23 -19 4 -14 -12 3 -31 1 -42 -5 -14 -7
-23 -8 -27 -1 -3 5 -1 10 6 10 8 0 8 4 -1 15 -19 23 29 19 60 -5z m23 -54 c9
-7 17 -16 17 -20 0 -3 -8 -6 -17 -7 -14 0 -15 -2 -3 -6 35 -11 59 -27 54 -35
-7 -12 3 -10 26 4 16 11 22 9 34 -7 12 -17 12 -21 -2 -31 -9 -7 -20 -10 -24
-8 -4 2 -9 0 -13 -6 -4 -6 -23 -7 -48 -4 -51 8 -73 24 -33 24 24 0 27 2 16 15
-7 8 -20 15 -30 15 -9 0 -25 10 -36 22 -12 13 -13 18 -4 13 13 -8 13 -7 1 9
-13 15 -13 19 0 27 20 12 41 11 62 -5z m67 -26 c0 -5 -7 -10 -15 -10 -8 0 -15
5 -15 10 0 6 7 10 15 10 8 0 15 -4 15 -10z m-143 -66 c7 -10 13 -23 13 -30 0
-16 33 -74 42 -74 4 0 14 -16 22 -35 8 -19 22 -35 31 -35 13 0 13 -3 3 -19
-13 -22 -2 -52 34 -90 23 -25 23 -41 1 -42 -12 0 -8 -4 10 -11 26 -9 35 -27
20 -42 -5 -4 -8 -13 -8 -19 0 -8 -20 -12 -57 -12 -31 0 -59 -3 -63 -7 -10 -10
41 -21 65 -15 18 5 19 3 4 -24 -8 -16 -19 -29 -24 -29 -5 0 -7 -7 -3 -16 4
-10 -1 -17 -15 -20 -11 -3 -34 -26 -52 -50 -30 -42 -61 -56 -75 -34 -4 6 -11
8 -16 4 -6 -4 -6 -11 1 -19 8 -9 8 -15 0 -20 -6 -3 -8 -10 -5 -15 3 -4 -2 -13
-10 -20 -7 -6 -11 -18 -8 -26 6 -17 -13 -19 -20 -1 -4 9 -8 8 -16 -3 -6 -9 -7
-18 -1 -24 16 -16 12 -24 -12 -28 -13 -2 -29 -15 -36 -30 -7 -16 -17 -28 -23
-28 -5 0 -9 -6 -9 -12 -1 -7 -9 -23 -19 -35 -20 -25 -37 -31 -25 -10 4 7 3 8
-2 4 -5 -5 -9 -19 -9 -30 0 -16 -9 -25 -33 -33 -18 -5 -29 -13 -26 -17 4 -4
-4 -7 -17 -8 l-24 0 25 -11 c18 -8 21 -12 10 -15 -9 -2 -21 -17 -29 -34 -12
-27 -16 -29 -49 -23 -21 4 -48 11 -62 17 -24 10 -24 11 15 17 29 5 32 8 14 9
-15 0 -39 7 -53 15 l-27 13 33 8 33 8 -44 6 c-25 3 -46 12 -49 20 -3 10 1 12
17 8 18 -4 20 -3 11 8 -7 8 -8 19 -4 26 4 7 2 10 -7 7 -8 -3 -13 -11 -12 -17
2 -6 -4 -11 -13 -11 -11 0 -15 6 -11 20 3 13 -1 24 -14 30 -10 6 -19 17 -19
26 0 8 -7 17 -15 20 -20 8 -9 24 18 24 17 1 10 7 -25 28 -27 15 -48 33 -48 40
0 6 -4 12 -10 12 -17 0 -11 18 8 22 13 3 11 7 -13 20 -17 9 -39 26 -50 38 -17
19 -18 23 -5 33 26 21 21 36 -13 42 -18 4 -39 15 -45 26 -13 21 -11 22 43 20
23 -2 27 0 15 8 -8 6 -32 11 -52 11 -31 0 -36 3 -31 18 4 9 11 20 16 23 5 4
-4 10 -21 14 -37 8 -65 35 -36 35 11 0 35 -4 54 -10 32 -9 33 -8 16 5 -11 8
-26 15 -33 15 -7 0 -23 5 -36 12 -12 6 -28 14 -36 18 -23 10 -28 35 -5 25 11
-4 38 -11 62 -15 33 -5 42 -4 42 8 0 10 -8 13 -27 9 -15 -3 -37 1 -50 10 -12
8 -30 13 -38 9 -8 -3 -15 -1 -15 5 0 13 179 1 197 -13 14 -12 56 0 48 13 -7
11 38 11 86 0 45 -10 99 -3 99 14 0 15 55 28 78 17 9 -4 40 -7 67 -7 43 0 50
2 47 19 -3 16 1 18 27 13 17 -4 31 -3 31 2 0 5 11 8 24 7 21 -3 23 -1 13 15
-15 25 -9 28 51 30 34 2 58 -3 69 -13 21 -18 73 -32 73 -20 0 5 -18 16 -40 25
-38 15 -60 40 -46 54 3 3 18 1 33 -6 20 -9 28 -10 31 -1 3 8 8 8 18 -1 8 -7
17 -9 20 -6 9 8 -74 44 -119 52 -21 3 -35 10 -31 16 3 5 20 7 39 3 38 -7 55
10 26 26 -13 7 -18 16 -14 27 4 11 3 14 -5 9 -7 -4 -28 1 -47 10 -57 27 -22
43 79 39 44 -2 63 -8 73 -21z m122 -49 c16 -8 32 -11 35 -7 4 3 11 0 17 -8 8
-13 10 -13 18 -1 7 11 13 10 35 -5 32 -24 33 -36 2 -28 -13 3 -27 1 -30 -5 -5
-7 6 -11 29 -11 29 0 36 -3 31 -15 -5 -14 4 -19 29 -16 6 0 11 -15 12 -35 1
-28 -2 -35 -15 -32 -9 2 -16 11 -16 21 1 10 -5 17 -17 17 -25 0 -24 -8 6 -34
l25 -22 -35 -34 c-33 -32 -36 -33 -53 -17 -14 15 -15 19 -3 26 15 10 8 15 -31
25 -26 6 -28 10 -28 62 0 52 -1 55 -22 52 -19 -2 -23 1 -21 19 2 14 -5 27 -17
33 -22 12 -18 30 6 30 8 0 28 -7 43 -15z m-1049 -185 c0 -5 -2 -10 -4 -10 -3
0 -8 5 -11 10 -3 6 -1 10 4 10 6 0 11 -4 11 -10z m594 -824 c-3 -8 -12 -17
-20 -20 -12 -4 -12 -2 -4 14 12 23 32 27 24 6z"/>
<path d="M10520 15170 c0 -5 5 -10 10 -10 6 0 10 5 10 10 0 6 -4 10 -10 10 -5
0 -10 -4 -10 -10z"/>
<path d="M10240 15160 c0 -5 5 -10 11 -10 5 0 7 5 4 10 -3 6 -8 10 -11 10 -2
0 -4 -4 -4 -10z"/>
<path d="M10390 14950 c0 -5 5 -10 10 -10 6 0 10 5 10 10 0 6 -4 10 -10 10 -5
0 -10 -4 -10 -10z"/>
<path d="M9594 14786 c11 -9 25 -16 30 -17 18 -1 40 -7 73 -20 30 -12 55 -7
40 7 -7 7 -93 32 -137 41 -24 4 -24 4 -6 -11z"/>
<path d="M9890 14790 c0 -5 9 -10 21 -10 11 0 17 5 14 10 -3 6 -13 10 -21 10
-8 0 -14 -4 -14 -10z"/>
<path d="M9975 14790 c3 -5 8 -10 11 -10 2 0 4 5 4 10 0 6 -5 10 -11 10 -5 0
-7 -4 -4 -10z"/>
<path d="M10342 14788 c6 -18 28 -21 28 -4 0 9 -7 16 -16 16 -9 0 -14 -5 -12
-12z"/>
<path d="M9775 14740 c28 -12 57 -12 50 0 -3 6 -21 10 -38 9 -27 0 -29 -2 -12
-9z"/>
<path d="M10000 14746 c0 -2 11 -6 25 -8 13 -3 22 -1 19 3 -5 9 -44 13 -44 5z"/>
<path d="M9625 14726 c23 -15 113 -36 153 -35 l27 1 -30 13 c-16 7 -33 11 -37
9 -4 -3 -28 2 -53 11 -25 8 -53 15 -63 15 -14 0 -14 -2 3 -14z"/>
<path d="M10290 14736 c0 -2 11 -6 25 -8 13 -3 22 -1 19 3 -5 9 -44 13 -44 5z"/>
<path d="M10421 14689 c-24 -23 -23 -33 2 -23 15 5 31 33 24 40 -2 2 -14 -6
-26 -17z"/>
<path d="M10140 14680 c-8 -5 -12 -11 -9 -14 2 -3 11 -1 19 4 8 5 12 11 9 14
-2 3 -11 1 -19 -4z"/>
<path d="M10310 14641 c0 -5 7 -11 14 -14 10 -4 13 -1 9 9 -6 15 -23 19 -23 5z"/>
<path d="M10376 14634 c-8 -20 0 -32 14 -18 5 5 5 15 1 22 -6 11 -10 10 -15
-4z"/>
<path d="M9990 14630 c8 -5 20 -10 25 -10 6 0 3 5 -5 10 -8 5 -19 10 -25 10
-5 0 -3 -5 5 -10z"/>
<path d="M10148 14623 c7 -3 16 -2 19 1 4 3 -2 6 -13 5 -11 0 -14 -3 -6 -6z"/>
<path d="M10225 14617 c-4 -10 -5 -21 -1 -24 10 -10 18 4 13 24 -4 17 -4 17
-12 0z"/>
<path d="M10280 14600 c0 -9 39 -25 45 -18 2 2 -7 8 -21 15 -13 6 -24 7 -24 3z"/>
<path d="M9678 14583 c7 -3 16 -2 19 1 4 3 -2 6 -13 5 -11 0 -14 -3 -6 -6z"/>
<path d="M10340 14579 c0 -5 5 -7 10 -4 6 3 10 8 10 11 0 2 -4 4 -10 4 -5 0
-10 -5 -10 -11z"/>
<path d="M10226 14524 c-7 -18 21 -31 36 -16 7 7 4 13 -10 21 -16 8 -21 7 -26
-5z"/>
<path d="M10180 14441 c0 -13 28 -33 33 -23 3 4 -3 13 -14 20 -10 7 -19 8 -19
3z"/>
<path d="M10115 14400 c-3 -5 -2 -10 4 -10 5 0 13 5 16 10 3 6 2 10 -4 10 -5
0 -13 -4 -16 -10z"/>
<path d="M10160 14390 c0 -5 5 -10 10 -10 6 0 10 5 10 10 0 6 -4 10 -10 10 -5
0 -10 -4 -10 -10z"/>
<path d="M10000 14350 c0 -5 5 -10 10 -10 6 0 10 5 10 10 0 6 -4 10 -10 10 -5
0 -10 -4 -10 -10z"/>
<path d="M10035 14260 c3 -5 8 -10 11 -10 2 0 4 5 4 10 0 6 -5 10 -11 10 -5 0
-7 -4 -4 -10z"/>
<path d="M8150 15470 c-8 -4 -32 -16 -52 -26 -20 -10 -42 -28 -48 -40 -18 -32
-5 -197 27 -349 5 -22 6 -56 3 -75 -3 -19 -2 -46 2 -60 9 -33 28 -153 34 -215
3 -27 14 -93 25 -146 10 -53 18 -107 18 -120 -1 -13 3 -37 9 -54 6 -16 15 -46
22 -65 6 -19 17 -93 25 -165 8 -71 17 -143 19 -160 18 -106 27 -192 31 -271 2
-50 9 -111 15 -135 7 -23 13 -52 15 -63 1 -12 6 -29 10 -39 10 -24 -4 -36 -17
-14 -5 10 -22 33 -37 50 -15 18 -43 55 -62 82 -19 28 -46 66 -62 86 -15 20
-27 39 -27 42 0 4 -37 53 -82 110 -46 56 -87 110 -93 118 -24 39 -100 135
-112 142 -7 4 -13 14 -13 22 0 8 -18 34 -39 57 -22 24 -65 70 -95 103 -31 33
-56 65 -56 72 0 6 -3 13 -8 15 -4 2 -22 26 -40 53 -17 28 -55 73 -83 100 -28
28 -59 69 -69 92 -19 42 -50 69 -65 55 -5 -4 -5 -2 -1 5 3 6 -2 20 -12 30 -10
10 -22 26 -25 36 -4 9 -13 17 -22 17 -8 0 -15 5 -15 11 0 11 -16 32 -104 134
-38 44 -125 171 -134 195 -3 8 -13 24 -23 35 -10 11 -30 35 -46 54 -24 28 -38
34 -79 38 -47 4 -50 3 -77 -32 -59 -75 -58 -150 5 -340 11 -33 23 -67 28 -76
5 -9 12 -33 15 -53 4 -20 11 -39 16 -42 5 -3 9 -16 9 -29 0 -13 4 -26 9 -30 5
-3 15 -31 22 -63 7 -31 19 -61 26 -65 7 -4 13 -15 13 -23 0 -15 28 -73 41 -84
5 -5 21 -38 23 -50 2 -10 125 -268 202 -423 8 -16 14 -36 14 -45 0 -25 128
-291 150 -312 25 -23 50 -67 50 -86 0 -13 5 -24 10 -24 6 0 10 -8 10 -17 0
-14 -4 -12 -25 7 -14 13 -25 32 -25 42 0 11 -5 16 -10 13 -6 -4 -17 -1 -25 5
-8 6 -19 9 -25 5 -5 -3 -10 0 -10 7 -1 17 -121 108 -143 108 -9 0 -20 6 -24
13 -4 7 -43 28 -85 47 -43 18 -78 37 -78 41 0 4 -18 14 -40 23 -22 9 -40 20
-40 24 0 5 -24 21 -54 35 -30 15 -57 31 -60 36 -4 5 -15 7 -25 4 -12 -3 -26 3
-38 17 -10 12 -38 32 -63 44 -25 12 -54 27 -65 33 -11 7 -54 28 -95 48 -41 21
-93 48 -115 62 -187 115 -326 186 -447 229 -113 40 -175 28 -219 -43 -30 -48
-26 -80 18 -161 44 -81 65 -110 121 -166 23 -23 42 -47 42 -52 0 -6 14 -23 30
-39 17 -16 30 -32 30 -36 0 -8 115 -134 158 -172 12 -11 22 -28 22 -36 0 -9
17 -35 38 -58 20 -23 68 -78 105 -122 38 -45 73 -81 78 -81 5 0 9 -5 9 -11 0
-16 119 -155 228 -266 53 -54 102 -120 102 -139 0 -2 -17 4 -37 14 -21 11 -44
17 -50 15 -7 -3 -28 5 -47 16 -18 12 -41 18 -50 15 -9 -3 -16 -1 -16 5 0 6 -9
11 -19 11 -11 0 -22 4 -25 9 -10 16 -56 19 -56 4 0 -8 -6 -13 -12 -10 -7 2
-12 11 -12 20 2 19 -18 27 -166 67 -63 18 -122 34 -130 38 -34 13 -157 43
-190 47 -19 2 -53 8 -75 13 -76 20 -180 42 -212 46 -94 12 -295 56 -310 68 -7
5 -16 8 -20 5 -4 -3 -30 -1 -58 3 -72 12 -121 -5 -176 -59 -49 -49 -66 -92
-50 -132 21 -55 209 -212 455 -380 54 -37 113 -79 130 -93 17 -14 59 -44 94
-67 34 -23 62 -46 62 -50 0 -5 5 -9 12 -9 10 0 69 -50 155 -131 31 -29 117
-78 138 -79 6 -1 23 -11 39 -24 28 -23 28 -24 8 -35 -12 -6 -128 -13 -298 -16
-154 -3 -304 -10 -334 -15 -57 -10 -225 -20 -387 -23 -64 -1 -94 -6 -98 -15
-3 -9 -27 -12 -77 -11 -88 1 -115 -8 -168 -59 -52 -52 -56 -101 -10 -152 16
-18 30 -38 30 -44 0 -6 11 -18 24 -26 24 -15 115 -82 209 -155 29 -22 78 -57
110 -79 31 -21 57 -42 57 -47 0 -5 8 -9 18 -9 10 0 28 -10 39 -22 11 -13 35
-34 53 -48 18 -14 40 -33 49 -43 9 -10 35 -28 59 -39 23 -12 42 -27 42 -35 0
-7 5 -13 10 -13 22 0 26 -2 46 -21 25 -24 66 -47 152 -89 35 -16 61 -34 58
-39 -8 -12 -86 -29 -176 -37 -41 -3 -82 -10 -90 -14 -8 -4 -46 -10 -85 -13
-98 -8 -211 -24 -291 -41 -38 -8 -103 -18 -144 -20 -97 -7 -124 -11 -185 -26
-69 -18 -81 -25 -98 -60 -35 -69 -29 -119 19 -162 40 -35 193 -75 327 -85 45
-3 87 -9 92 -13 12 -9 332 -28 510 -30 64 -1 95 -11 95 -30 0 -5 -14 -12 -32
-15 -21 -5 -63 -38 -126 -99 -51 -50 -101 -95 -110 -100 -27 -15 -136 -107
-150 -127 -7 -11 -26 -26 -42 -34 -16 -8 -31 -24 -35 -35 -3 -11 -18 -23 -33
-27 -15 -3 -40 -19 -56 -35 -15 -16 -46 -38 -67 -48 -21 -11 -43 -28 -48 -38
-5 -10 -29 -32 -53 -48 -24 -16 -44 -32 -46 -36 -2 -5 -10 -8 -17 -8 -8 0 -21
-10 -29 -21 -14 -21 -38 -38 -82 -58 -26 -12 -74 -68 -74 -87 0 -8 -5 -22 -11
-32 -8 -13 -9 -34 -3 -68 8 -46 12 -51 57 -73 44 -22 58 -23 209 -22 89 1 165
5 168 10 5 8 62 15 230 27 41 3 84 9 95 14 27 11 208 42 267 46 25 1 60 10 78
19 17 9 38 14 46 11 8 -3 27 -1 42 5 44 17 143 39 197 44 41 3 145 24 175 35
14 6 46 12 72 14 l46 4 -12 -29 c-15 -36 -30 -46 -150 -108 -52 -27 -107 -58
-123 -68 -15 -11 -57 -39 -93 -63 -36 -24 -74 -51 -85 -60 -11 -10 -31 -21
-45 -25 -35 -10 -130 -59 -130 -67 0 -4 -19 -16 -42 -26 -96 -43 -478 -361
-478 -398 0 -8 -5 -14 -10 -14 -13 0 -69 -62 -70 -76 0 -7 -7 -14 -15 -18 -8
-3 -20 -16 -25 -28 -6 -13 -22 -41 -36 -63 -69 -111 -81 -172 -43 -224 20 -27
71 -47 90 -35 5 3 28 7 51 10 24 3 58 12 76 20 18 8 40 14 50 11 9 -2 34 5 54
15 21 10 48 18 60 18 13 0 32 7 42 15 11 8 37 15 58 15 22 0 41 5 44 13 2 7
18 14 35 15 17 1 37 8 44 16 7 7 35 19 62 25 26 7 91 26 143 42 52 16 102 29
110 29 9 0 20 4 25 9 6 5 34 16 62 26 29 9 55 21 58 26 4 5 16 9 29 9 12 0 26
4 32 10 5 5 18 11 29 13 11 1 26 6 33 11 7 4 30 8 50 9 22 1 58 14 91 34 30
18 63 33 72 33 10 0 55 18 100 40 46 22 91 40 100 40 10 0 22 6 26 14 13 22
86 57 97 46 6 -6 4 -16 -7 -28 -9 -10 -17 -24 -17 -30 0 -7 -5 -12 -10 -12
-15 0 -80 -67 -80 -81 0 -13 -31 -57 -84 -121 -78 -93 -98 -118 -155 -189 -34
-43 -61 -79 -61 -82 0 -6 -30 -42 -82 -101 -21 -22 -38 -47 -38 -53 0 -7 -5
-13 -11 -13 -6 0 -9 -7 -5 -15 3 -9 0 -15 -10 -15 -8 0 -17 -13 -21 -31 -4
-23 -14 -35 -35 -43 -15 -6 -28 -17 -28 -26 0 -9 -18 -35 -40 -58 -22 -22 -40
-46 -40 -51 0 -5 -15 -29 -33 -53 -18 -24 -41 -60 -50 -80 -10 -20 -22 -40
-27 -43 -6 -4 -17 -21 -26 -38 -8 -18 -25 -50 -39 -72 -13 -22 -24 -47 -24
-56 -1 -9 -8 -22 -16 -29 -25 -21 -10 -128 23 -162 43 -46 100 -37 204 30 14
9 52 32 84 51 32 18 64 39 72 47 7 8 18 14 23 14 6 0 23 14 38 31 18 19 31 27
35 20 9 -13 46 4 46 21 0 16 32 37 56 38 11 0 30 9 42 20 12 11 26 20 32 20 5
0 10 5 10 10 0 6 6 10 13 10 7 0 17 14 22 32 10 32 25 40 78 41 19 0 27 5 27
17 0 19 26 34 41 24 5 -3 23 6 40 20 17 14 35 26 41 26 15 0 58 48 58 65 0 8
7 11 19 8 13 -3 27 4 41 20 12 14 35 31 51 37 16 7 31 21 34 31 4 11 16 19 29
19 13 0 29 7 36 15 7 8 18 15 26 15 7 0 18 8 23 19 6 10 21 21 35 25 13 3 26
14 29 25 3 12 15 21 33 23 16 2 28 8 27 14 -3 15 109 120 137 129 38 12 43 -9
14 -61 -15 -27 -30 -51 -34 -54 -14 -10 -31 -51 -25 -60 3 -6 1 -10 -4 -10 -6
0 -11 -9 -11 -20 0 -11 -11 -41 -24 -68 -13 -26 -30 -66 -37 -90 -7 -23 -18
-47 -26 -53 -7 -6 -11 -15 -8 -19 3 -4 -2 -21 -10 -36 -8 -16 -15 -36 -15 -44
0 -19 -24 -87 -33 -96 -4 -4 -7 -18 -7 -31 0 -13 -9 -42 -19 -66 -11 -23 -25
-67 -32 -97 -7 -30 -19 -59 -26 -63 -7 -4 -13 -15 -13 -23 0 -18 -21 -57 -37
-67 -7 -4 -13 -19 -13 -32 0 -13 -4 -26 -9 -29 -5 -3 -7 -15 -4 -25 3 -10 0
-22 -6 -25 -6 -4 -11 -15 -11 -24 0 -10 -9 -33 -19 -53 -11 -20 -23 -53 -26
-73 -4 -20 -11 -39 -16 -42 -5 -3 -9 -20 -9 -39 0 -18 -5 -35 -10 -37 -6 -2
-12 -20 -13 -39 -1 -20 -8 -44 -16 -52 -7 -9 -10 -25 -6 -37 4 -14 2 -20 -8
-20 -15 0 -21 -22 -32 -113 -2 -21 -8 -43 -12 -50 -24 -38 9 -101 70 -131 36
-17 41 -17 75 -3 20 9 49 18 65 21 29 7 126 84 217 173 395 385 603 601 687
708 33 44 116 136 182 205 67 69 121 131 121 138 0 6 7 12 16 12 15 0 141 123
239 233 56 63 92 76 81 30 -17 -78 -29 -140 -29 -153 0 -8 -6 -48 -13 -87 -8
-40 -16 -101 -19 -135 -4 -34 -8 -65 -11 -70 -3 -4 -7 -20 -9 -35 -2 -16 -20
-91 -40 -168 -20 -77 -39 -158 -42 -180 -3 -22 -10 -48 -15 -58 -5 -10 -11
-64 -13 -119 -3 -71 -9 -108 -21 -126 -16 -25 -16 -26 16 -52 18 -15 48 -33
66 -39 29 -10 39 -9 76 10 48 25 133 85 245 174 42 33 120 94 174 136 94 72
129 103 274 238 88 82 200 206 263 291 31 41 64 84 73 95 36 40 165 212 208
275 40 60 69 98 204 277 26 33 47 64 47 67 0 4 15 30 33 59 64 99 97 158 103
182 10 39 30 50 56 32 39 -27 164 -150 194 -192 34 -47 28 -40 131 -151 44
-49 92 -101 105 -115 12 -15 52 -59 87 -98 36 -40 71 -82 80 -94 8 -12 21 -26
28 -30 7 -5 11 -12 8 -18 -9 -14 81 -133 123 -163 21 -14 164 -156 318 -314
395 -407 721 -724 772 -751 30 -16 74 0 92 33 15 29 9 61 -36 190 -23 65 -43
155 -59 260 -32 207 -61 354 -87 436 -19 61 -45 160 -54 205 -2 11 -8 43 -14
70 -5 28 -15 82 -22 120 -6 39 -17 75 -24 80 -14 11 -45 135 -37 148 7 11 50
-29 78 -73 12 -20 43 -57 69 -83 25 -26 46 -50 46 -52 0 -3 8 -13 18 -24 9
-10 42 -53 72 -96 30 -43 67 -89 83 -103 15 -14 27 -30 27 -35 0 -5 9 -19 20
-31 44 -49 130 -156 179 -225 30 -41 66 -87 82 -102 16 -16 29 -31 29 -34 0
-3 17 -22 38 -43 21 -20 78 -82 127 -137 48 -55 142 -154 209 -221 66 -66 137
-138 156 -160 20 -21 76 -75 125 -119 50 -44 99 -91 109 -105 34 -45 120 -132
141 -141 11 -6 30 -16 43 -23 44 -25 122 8 143 60 11 30 -9 94 -76 249 -90
207 -173 371 -197 386 -5 3 -17 19 -26 36 -37 67 -83 131 -97 137 -8 3 -15 17
-15 31 0 14 -9 43 -20 65 -11 22 -20 49 -20 60 0 12 -13 32 -28 45 -15 13 -37
40 -47 61 -11 21 -27 45 -35 55 -49 55 -65 78 -80 114 -9 22 -28 54 -42 70
-33 40 -218 304 -218 311 0 12 -90 122 -113 137 -13 9 -27 25 -30 37 -4 18 -2
20 16 14 12 -3 45 -20 72 -37 60 -36 102 -60 175 -99 30 -16 75 -41 100 -55
40 -23 91 -49 330 -168 36 -17 83 -38 105 -45 22 -6 96 -40 165 -75 156 -78
398 -183 441 -192 17 -3 58 -19 91 -35 32 -15 61 -28 64 -28 3 0 48 -20 100
-45 191 -91 261 -116 317 -113 47 3 53 6 79 43 32 45 31 80 -2 122 -11 14 -20
29 -20 34 0 4 -22 31 -50 59 -27 28 -50 57 -50 65 0 7 -11 20 -25 29 -14 9
-25 25 -25 36 0 10 -8 25 -18 32 -11 7 -24 23 -31 36 -6 12 -21 22 -31 22 -13
0 -20 7 -20 20 0 11 -4 20 -10 20 -5 0 -10 7 -10 15 0 8 -8 15 -18 15 -10 0
-26 15 -36 33 -10 17 -27 39 -38 47 -11 9 -21 25 -22 35 -2 11 -9 19 -15 18
-6 -2 -13 8 -17 22 -4 18 -11 24 -23 20 -10 -3 -21 4 -30 18 -11 17 -11 19 0
10 22 -22 30 -14 13 12 -9 14 -20 22 -25 19 -5 -3 -9 2 -9 10 0 9 -4 16 -9 16
-4 0 -20 17 -34 38 -14 21 -39 54 -56 73 -17 18 -31 41 -31 50 0 17 -30 49
-47 49 -6 0 -22 17 -35 38 -14 20 -49 60 -77 88 -28 29 -51 57 -51 63 0 6 -4
11 -9 11 -5 0 -30 25 -56 56 -38 44 -45 58 -34 65 11 7 9 9 -6 9 -18 0 -55 31
-55 45 0 12 42 3 94 -20 31 -14 69 -25 84 -25 16 0 37 -7 48 -15 10 -8 28 -15
40 -15 11 0 36 -8 55 -17 19 -10 43 -16 55 -15 12 2 35 -9 52 -23 17 -14 62
-34 104 -45 40 -10 98 -29 128 -40 30 -12 80 -28 110 -35 102 -23 235 -58 255
-66 11 -4 47 -12 80 -18 33 -5 79 -14 103 -20 23 -6 69 -13 102 -14 33 -2 63
-7 67 -10 3 -4 25 -7 48 -7 22 0 46 -5 51 -10 16 -16 164 -39 214 -33 84 10
121 41 125 103 2 40 -18 69 -57 83 -10 4 -18 13 -18 21 0 8 -9 17 -19 21 -11
3 -22 12 -25 20 -3 8 -13 15 -21 15 -9 0 -28 13 -43 29 -15 16 -38 31 -52 33
-14 2 -24 9 -22 16 1 7 -3 12 -10 11 -19 -3 -49 12 -43 21 3 5 0 12 -6 16 -8
4 -9 3 -5 -4 12 -20 -7 -13 -53 18 -24 17 -48 30 -54 30 -5 0 -18 11 -29 25
-12 16 -30 25 -47 25 -15 0 -36 7 -47 16 -19 15 -19 16 1 9 l20 -6 -20 20
c-11 11 -47 34 -80 51 -33 17 -62 34 -65 38 -9 13 -69 52 -79 52 -5 0 -25 15
-44 33 -19 18 -74 55 -122 82 -48 28 -101 62 -120 78 -18 15 -37 27 -42 27
-11 0 -178 120 -215 155 -15 14 -30 25 -33 25 -3 0 -37 20 -75 45 -38 25 -113
68 -167 96 -112 59 -153 86 -153 101 0 6 11 8 28 4 15 -3 61 -11 102 -17 41
-6 100 -19 130 -29 48 -16 83 -21 225 -36 135 -13 167 -16 220 -20 33 -2 80
-5 105 -7 25 -2 50 -6 57 -10 6 -4 31 -7 55 -7 24 1 219 0 433 -2 l390 -3 74
25 c42 14 86 37 101 52 35 35 46 88 26 127 -21 40 -83 89 -131 103 -22 7 -42
14 -45 18 -9 9 -41 27 -150 81 -132 65 -153 77 -280 159 -45 29 -195 110 -204
110 -3 0 -3 -7 0 -15 11 -27 -14 -16 -38 18 -24 35 -58 66 -71 67 -5 0 -54 22
-110 48 -56 27 -114 54 -129 60 -16 6 -28 18 -28 27 0 9 10 15 28 16 61 3 159
-2 192 -11 19 -5 76 -7 125 -4 50 3 106 5 125 3 19 -1 42 -1 50 0 8 0 58 3
111 6 53 2 102 6 110 9 20 6 185 24 299 32 52 3 100 10 105 14 6 4 23 10 40
14 16 4 53 22 82 39 50 31 69 59 55 81 -3 6 -7 22 -8 36 -1 14 -5 34 -9 46 -8
24 -82 90 -117 103 -33 12 -190 24 -358 26 -147 2 -220 12 -283 39 -75 31
-271 50 -377 37 -41 -5 -78 -7 -82 -5 -9 6 34 44 48 44 4 0 21 10 38 23 17 13
52 32 78 43 30 12 48 25 48 35 0 14 26 25 80 33 3 1 21 17 40 36 19 20 47 42
62 49 15 8 37 23 48 33 11 10 30 23 42 28 35 15 91 50 113 70 11 9 33 21 50
24 16 4 48 22 70 40 22 18 58 42 80 54 147 74 171 91 277 190 63 60 78 98 57
141 -22 41 -83 81 -126 81 -13 0 -58 7 -100 16 -64 13 -90 14 -162 4 -102 -14
-138 -16 -526 -35 -66 -4 -138 -10 -160 -15 -22 -5 -57 -10 -77 -10 -21 0 -38
-4 -38 -10 0 -5 -18 -10 -39 -10 -22 0 -43 -5 -47 -11 -3 -6 -17 -8 -29 -5
-13 3 -27 1 -30 -4 -4 -6 -10 -8 -14 -6 -4 3 -49 -2 -101 -10 -52 -8 -113 -17
-135 -19 -22 -2 -69 -9 -105 -14 -88 -14 -120 -14 -120 2 0 7 22 23 49 35 66
28 200 114 201 128 0 5 16 16 35 24 20 8 44 28 55 47 11 18 32 38 47 44 15 5
39 23 53 38 14 16 41 33 61 40 20 6 45 21 54 31 10 11 26 20 35 20 10 0 25 11
34 24 8 13 29 27 45 31 16 3 37 18 46 31 9 14 21 24 28 21 6 -2 28 15 49 38
22 25 55 47 79 55 24 8 51 27 65 46 17 22 31 30 43 27 13 -3 23 3 33 22 9 18
45 44 113 80 55 29 121 73 147 98 26 26 60 54 75 64 41 25 113 83 150 117 22
22 29 35 23 46 -5 9 -8 22 -8 30 3 51 -5 74 -33 101 -48 45 -96 54 -219 40
-93 -11 -132 -20 -205 -52 -11 -5 -63 -23 -115 -40 -52 -17 -106 -37 -120 -44
-14 -7 -45 -19 -70 -26 -25 -8 -61 -22 -80 -31 -19 -10 -44 -18 -56 -18 -21 0
-60 -15 -126 -50 -20 -11 -46 -20 -57 -20 -12 0 -21 -4 -21 -10 0 -5 -17 -12
-37 -16 -21 -4 -42 -10 -48 -14 -5 -4 -25 -11 -42 -15 -18 -3 -33 -10 -33 -15
0 -5 -14 -11 -31 -15 -17 -4 -42 -13 -57 -21 -15 -8 -32 -14 -38 -14 -5 0 -28
-8 -50 -19 -58 -27 -105 -47 -144 -61 -43 -15 -73 -27 -104 -41 -14 -7 -32 -9
-42 -5 -15 6 -12 11 17 39 19 18 43 45 53 60 10 15 25 27 32 27 18 0 134 113
134 131 0 8 16 29 35 48 19 19 35 40 35 47 0 8 4 14 9 14 17 0 141 124 141
142 0 9 20 32 45 50 38 28 45 37 41 59 -5 28 7 51 54 98 17 16 30 36 30 44 0
8 20 36 45 61 25 26 45 52 45 57 0 5 5 9 10 9 6 0 10 7 10 16 0 9 9 28 21 42
67 88 79 107 79 128 0 14 10 30 26 40 17 12 24 23 20 37 -3 12 4 28 20 44 14
14 23 31 20 38 -2 7 4 21 14 30 11 10 17 21 14 26 -5 9 23 59 40 70 5 4 7 21
4 38 -3 18 -1 34 3 36 14 9 -14 86 -39 105 -42 33 -73 26 -189 -45 -18 -11
-33 -26 -33 -32 0 -7 -18 -22 -41 -33 -48 -25 -119 -76 -172 -125 -26 -23 -49
-35 -68 -35 -18 0 -32 -6 -36 -16 -9 -23 -185 -164 -205 -164 -10 0 -18 -6
-18 -13 0 -7 -12 -21 -27 -32 -15 -11 -41 -32 -58 -46 -32 -28 -107 -69 -126
-69 -6 0 -27 -13 -46 -30 -18 -16 -39 -30 -45 -30 -7 0 -27 -14 -45 -32 -29
-28 -35 -30 -48 -18 -13 13 -12 22 1 75 9 33 18 76 20 95 3 19 9 44 14 55 4
11 18 81 29 155 12 74 26 137 31 138 6 2 8 8 5 12 -3 5 1 37 9 72 37 159 72
337 68 350 -2 9 55 245 62 256 3 5 10 39 16 77 6 38 14 73 17 78 7 11 15 70
15 106 0 43 -32 86 -73 99 -64 20 -118 0 -192 -69 -34 -33 -65 -59 -69 -59 -5
0 -8 -5 -8 -10 0 -6 -17 -34 -38 -63 -21 -29 -51 -78 -67 -109 -15 -32 -32
-58 -37 -58 -4 0 -8 -9 -8 -21 0 -11 -14 -40 -30 -64 -16 -24 -30 -48 -30 -54
0 -6 -8 -15 -17 -20 -10 -5 -27 -27 -38 -48 -10 -21 -32 -54 -47 -74 -15 -20
-28 -41 -28 -46 0 -5 -10 -19 -23 -31 -13 -12 -29 -38 -37 -57 -8 -19 -18 -35
-22 -35 -5 0 -6 -5 -3 -10 6 -10 -105 -178 -137 -208 -10 -9 -18 -24 -18 -32
0 -9 -15 -34 -32 -56 -36 -43 -48 -61 -78 -116 -11 -21 -25 -38 -30 -38 -6 0
-10 -7 -10 -15 0 -14 -33 -70 -51 -85 -3 -3 -15 -21 -27 -41 -12 -21 -34 -44
-47 -53 -14 -9 -25 -24 -25 -34 0 -9 -9 -28 -20 -42 -11 -14 -20 -29 -20 -35
0 -5 -14 -28 -30 -49 -17 -22 -30 -45 -30 -52 0 -7 -9 -19 -19 -26 -11 -8 -32
-38 -46 -67 -25 -49 -48 -71 -62 -57 -3 3 -1 12 6 20 12 14 43 149 45 196 0
14 7 30 15 36 8 6 14 26 14 45 0 19 4 37 9 40 6 4 11 18 11 33 1 14 5 26 10
26 4 0 7 9 7 20 0 11 5 20 10 20 6 0 10 13 10 28 0 16 7 37 15 48 8 10 15 30
15 44 0 14 7 50 15 80 9 30 20 73 26 95 5 22 13 49 18 60 16 34 51 153 51 171
0 10 4 31 9 48 5 17 17 58 27 91 9 33 20 71 24 85 5 14 18 63 31 110 12 47 28
94 36 105 17 26 17 97 -1 140 -24 57 -106 61 -158 7 -66 -67 -118 -125 -118
-131 0 -4 -12 -18 -27 -32 -16 -13 -41 -42 -58 -63 -16 -21 -34 -43 -40 -50
-13 -15 -55 -88 -102 -178 -8 -15 -27 -37 -44 -48 -16 -12 -29 -27 -29 -34 0
-7 -9 -21 -20 -31 -11 -10 -20 -26 -20 -36 0 -10 -22 -41 -50 -68 -27 -28 -50
-55 -50 -60 0 -14 -62 -101 -72 -101 -4 0 -8 -4 -8 -9 0 -11 -97 -160 -124
-189 -12 -13 -20 -25 -19 -28 3 -6 -27 -58 -82 -143 -27 -42 -56 -88 -64 -102
-7 -15 -28 -44 -47 -65 -18 -22 -54 -76 -81 -122 -26 -45 -52 -81 -58 -79 -17
6 -17 78 -1 137 8 30 17 80 19 110 3 30 12 87 21 127 8 39 17 86 20 105 20
151 27 191 34 206 9 17 23 93 23 124 0 10 5 20 10 23 5 4 7 10 4 15 -3 5 -1
20 5 35 5 14 12 45 15 68 2 23 9 62 14 87 6 25 10 66 11 93 0 26 5 47 10 47 6
0 10 8 10 18 0 10 3 21 6 25 4 3 7 32 8 64 2 32 8 67 16 79 18 29 5 111 -20
124 -52 28 -118 1 -185 -77 -22 -25 -69 -78 -105 -117 -36 -39 -95 -105 -130
-146 -35 -41 -91 -104 -125 -140 -33 -36 -87 -96 -120 -135 -68 -79 -106 -117
-153 -153 -27 -21 -113 -125 -162 -198 -8 -13 -69 -94 -135 -181 -67 -87 -141
-187 -165 -223 -25 -36 -53 -74 -63 -85 -10 -11 -46 -64 -80 -118 -34 -54 -90
-136 -125 -182 -52 -69 -68 -84 -97 -89 -36 -7 -55 -2 -55 14 0 5 -20 50 -45
101 -24 50 -69 146 -99 212 -59 131 -280 573 -312 622 -10 17 -64 91 -119 165
-56 74 -118 162 -138 195 -21 33 -43 69 -50 80 -7 10 -58 87 -113 171 -116
172 -171 246 -298 393 -49 57 -84 101 -78 97 27 -16 8 11 -46 68 -32 34 -72
79 -90 101 -18 22 -32 36 -32 31 0 -4 27 -41 60 -82 62 -77 67 -93 14 -46 -57
51 -143 190 -129 211 3 5 -2 17 -11 25 -9 9 -17 22 -18 29 -1 7 -10 22 -21 33
-11 11 -31 33 -45 50 -32 38 -41 43 -60 34z m208 -382 c21 -21 13 -38 -18 -38
-25 0 -30 4 -30 25 0 27 26 35 48 13z m212 -224 c0 -9 -7 -14 -17 -12 -25 5
-28 28 -4 28 12 0 21 -6 21 -16z m4852 -55 c-6 -19 -14 -59 -17 -89 -7 -59
-35 -149 -66 -216 -11 -23 -26 -70 -33 -105 -8 -35 -23 -91 -34 -124 -11 -33
-23 -77 -26 -97 -4 -21 -12 -43 -19 -50 -7 -7 -14 -26 -15 -43 -2 -16 -8 -35
-13 -41 -5 -6 -7 -19 -3 -28 3 -9 1 -16 -5 -16 -7 0 -11 -20 -11 -49 0 -27 -6
-63 -14 -82 l-14 -32 -6 29 c-3 16 -2 45 4 64 5 19 10 49 10 67 0 17 4 34 10
38 5 3 6 13 3 21 -3 9 3 28 14 42 11 15 23 41 26 57 3 17 12 66 19 110 8 44
20 90 26 102 7 12 12 32 12 45 1 13 7 39 14 58 44 113 58 159 61 196 3 38 23
112 47 177 10 25 13 27 26 14 11 -12 12 -22 4 -48z m-6351 -61 c17 -35 48 -81
69 -104 21 -22 46 -54 56 -70 11 -16 26 -36 36 -44 9 -8 38 -46 64 -85 26 -38
54 -78 63 -87 26 -28 36 -41 87 -114 26 -38 68 -94 91 -124 24 -30 84 -109
134 -175 49 -66 93 -124 97 -130 4 -5 43 -62 86 -125 43 -63 83 -120 90 -125
15 -13 136 -173 136 -179 0 -3 29 -43 65 -88 35 -46 89 -120 120 -165 30 -45
78 -109 105 -142 49 -59 62 -91 37 -91 -21 0 -111 100 -166 184 -28 43 -97
137 -154 210 -143 184 -290 384 -380 518 -33 48 -65 92 -73 99 -8 6 -14 17
-14 23 0 6 -12 25 -27 42 -50 55 -149 178 -181 225 -38 57 -131 159 -143 159
-5 0 5 -24 24 -52 18 -29 44 -84 58 -123 13 -38 31 -81 40 -95 9 -14 19 -36
23 -50 4 -14 11 -34 16 -45 5 -11 26 -74 46 -140 35 -113 51 -153 110 -283 13
-29 24 -55 24 -58 0 -3 6 -20 13 -37 23 -53 39 -108 34 -114 -3 -3 -15 -2 -26
2 -20 6 -61 74 -61 100 0 6 -13 37 -30 70 -16 33 -30 65 -30 72 0 6 -9 27 -20
46 -12 19 -36 88 -56 153 -44 152 -70 227 -94 275 -11 21 -20 44 -20 51 0 7
-6 24 -13 38 -8 14 -26 59 -41 100 -35 94 -55 137 -83 176 -13 17 -23 34 -23
38 0 4 -15 25 -33 47 -19 21 -39 58 -46 81 -7 24 -26 71 -43 106 -28 59 -31
92 -8 92 5 0 24 -28 41 -62z m4175 -253 c5 -12 -35 -83 -106 -185 -9 -14 -20
-37 -24 -50 -9 -33 -25 -69 -43 -100 -8 -14 -21 -39 -29 -57 -7 -18 -23 -37
-34 -43 -11 -6 -20 -16 -20 -22 0 -19 -91 -171 -129 -214 -20 -23 -47 -58 -61
-79 -36 -54 -60 -77 -73 -72 -23 7 -17 43 15 91 18 27 38 57 43 65 6 9 28 43
50 75 22 32 49 73 59 90 39 63 90 141 96 146 10 9 51 85 77 140 41 91 141 230
165 230 5 0 11 -7 14 -15z m-2554 -192 c15 -15 28 -34 28 -43 0 -9 21 -36 46
-60 25 -25 70 -74 99 -110 29 -36 85 -98 124 -138 39 -41 86 -95 103 -120 18
-26 53 -74 78 -107 26 -33 49 -67 52 -75 4 -8 38 -54 77 -102 81 -101 95 -124
87 -145 -9 -22 -21 -13 -63 44 -21 29 -72 97 -113 152 -41 54 -108 144 -149
200 -41 55 -78 101 -82 101 -4 0 -44 43 -90 96 -46 52 -101 114 -122 136 -76
82 -141 198 -110 198 4 0 20 -12 35 -27z m3500 -5 c-7 -7 -12 -8 -12 -2 0 14
12 26 19 19 2 -3 -1 -11 -7 -17z m-12 -21 c0 -2 -9 -33 -21 -68 -23 -69 -36
-92 -50 -83 -5 3 -9 -4 -9 -15 0 -12 -4 -21 -9 -21 -12 0 -2 38 22 78 10 17
16 32 13 32 -4 0 3 18 14 40 11 22 25 40 30 40 6 0 10 -2 10 -3z m-6039 -204
c63 -42 116 -79 119 -83 3 -4 47 -31 97 -60 53 -30 104 -68 119 -87 14 -18 40
-44 58 -56 18 -12 80 -53 136 -92 57 -38 116 -81 131 -95 15 -14 52 -47 83
-74 57 -50 73 -76 34 -55 -12 6 -27 16 -32 21 -6 5 -26 19 -45 31 -19 12 -53
34 -75 49 -23 15 -48 31 -56 35 -8 4 -19 11 -25 15 -5 5 -50 38 -100 74 -49
36 -95 74 -102 84 -11 16 -135 100 -147 100 -9 0 -301 198 -323 219 -24 23
-28 33 -16 44 14 14 33 5 144 -70z m7967 -170 c-26 -54 -35 -69 -45 -76 -7 -4
-13 -13 -13 -18 0 -6 -21 -36 -47 -68 -139 -168 -198 -238 -217 -255 -11 -10
-21 -22 -21 -26 0 -5 -37 -52 -83 -107 -105 -125 -98 -116 -106 -141 -4 -12
-11 -22 -16 -22 -7 0 -70 -79 -95 -119 -23 -38 -99 -121 -111 -121 -7 0 -16 9
-19 20 -7 23 2 60 16 60 5 0 9 9 9 20 0 10 9 24 20 30 11 6 20 19 20 28 0 19
35 62 50 62 5 0 7 7 4 15 -4 10 0 15 11 15 12 0 15 5 10 20 -4 14 -1 22 12 27
19 7 79 66 98 94 31 49 52 75 67 87 10 7 18 19 18 26 0 7 19 33 43 58 77 81
191 203 262 283 67 74 148 141 133 108z m-1228 -28 c11 -13 10 -26 -4 -73 -9
-31 -23 -82 -31 -112 -7 -30 -22 -89 -33 -130 -11 -41 -20 -99 -20 -128 0 -29
-5 -59 -12 -67 -7 -8 -10 -21 -7 -30 4 -8 2 -17 -3 -20 -6 -4 -10 -13 -10 -22
0 -8 -6 -29 -14 -46 -29 -67 -38 -96 -31 -107 4 -6 2 -17 -4 -24 -7 -8 -14
-29 -16 -47 -17 -133 -64 -339 -86 -381 -5 -10 -9 -29 -9 -42 0 -14 -4 -28
-10 -31 -5 -3 -10 -19 -10 -34 0 -32 -21 -81 -35 -81 -31 0 -34 16 -14 90 10
40 19 82 19 92 0 10 4 18 9 18 4 0 11 21 14 48 9 67 12 81 19 88 4 3 4 12 1
20 -3 8 0 14 7 14 8 0 10 9 6 25 -4 14 -3 31 1 38 4 7 9 21 10 32 2 10 10 29
18 42 8 12 15 40 15 61 0 55 38 195 55 205 8 4 15 12 15 17 0 5 5 21 11 37 6
15 13 64 15 108 4 84 34 238 60 315 9 25 19 61 23 81 13 60 27 72 51 44z
m-1146 -95 c-19 -37 -48 -76 -91 -124 -27 -30 -62 -101 -63 -126 0 -8 -7 -23
-14 -33 -12 -15 -18 -17 -36 -7 -19 10 -21 17 -15 48 4 21 16 53 28 72 34 58
91 145 98 150 3 3 11 15 18 28 6 12 17 22 24 22 7 0 24 15 38 33 l24 32 3 -30
c2 -16 -4 -46 -14 -65z m1416 31 c0 -8 -8 -20 -17 -27 -10 -8 -13 -14 -6 -14
9 0 9 -8 1 -32 -13 -40 -14 -41 -26 -34 -12 7 3 113 19 132 10 12 14 12 20 2
5 -7 9 -19 9 -27z m970 15 c0 -3 -4 -8 -10 -11 -5 -3 -10 -1 -10 4 0 6 5 11
10 11 6 0 10 -2 10 -4z m-2991 -68 c-10 -35 -30 -85 -44 -111 -14 -27 -34 -95
-45 -150 -26 -128 -50 -237 -57 -257 -4 -8 -7 -19 -8 -25 -1 -5 -5 -33 -9 -62
-10 -64 -40 -116 -64 -111 -21 4 -21 40 1 118 8 30 24 89 35 130 12 41 30 100
41 130 10 30 24 87 29 127 8 55 22 93 57 160 26 48 52 94 58 101 22 27 24 9 6
-50z m2971 32 c0 -5 -6 -10 -12 -10 -10 0 -10 -3 0 -9 11 -7 9 -16 -10 -47
-14 -22 -47 -81 -74 -133 -27 -51 -59 -104 -71 -117 -13 -14 -26 -36 -29 -49
-7 -28 -96 -115 -118 -115 -23 0 -9 59 20 91 13 14 24 29 24 35 0 5 20 34 45
64 25 30 45 61 45 68 0 20 28 60 92 134 32 36 58 73 58 82 0 9 7 16 15 16 8 0
15 -4 15 -10z m-1330 -75 c0 -18 -50 -102 -106 -176 -23 -31 -48 -67 -55 -80
-7 -13 -31 -46 -53 -74 -23 -27 -77 -93 -121 -146 -123 -149 -163 -201 -182
-239 -10 -19 -24 -41 -30 -48 -7 -7 -21 -32 -32 -56 -10 -24 -23 -46 -28 -49
-6 -4 -32 -50 -58 -103 -26 -52 -55 -98 -63 -101 -25 -10 -32 19 -13 57 10 19
37 74 60 123 23 48 47 87 53 87 6 0 8 9 5 19 -3 12 4 28 19 42 13 12 24 28 24
35 0 7 6 17 13 21 8 4 22 24 33 43 10 19 31 46 45 61 15 14 40 46 55 70 16 24
34 47 39 51 6 4 29 33 50 65 22 32 45 63 51 68 10 9 35 45 59 84 6 9 22 29 37
45 15 16 25 32 22 37 -9 15 24 66 81 123 53 54 95 72 95 41z m-4120 -29 c0
-15 -18 -31 -26 -23 -7 7 7 37 17 37 5 0 9 -6 9 -14z m4437 -134 c-31 -120
-79 -199 -101 -164 -8 13 19 102 42 142 11 19 23 46 27 60 11 37 26 53 39 40
7 -7 5 -30 -7 -78z m-5872 38 c3 -6 -1 -7 -9 -4 -18 7 -21 14 -7 14 6 0 13 -4
16 -10z m1249 -72 c2 -7 23 -67 46 -133 25 -71 46 -151 51 -196 5 -42 16 -89
24 -105 8 -16 15 -37 15 -46 0 -10 4 -18 9 -18 5 0 13 -10 17 -22 3 -12 20
-43 35 -69 31 -50 36 -74 17 -81 -24 -9 -38 3 -58 50 -12 26 -31 57 -42 69
-12 13 -32 54 -44 91 -18 55 -20 69 -9 78 11 8 10 20 -6 68 -10 32 -17 62 -14
66 3 4 -3 23 -12 41 -10 19 -18 39 -19 44 -2 6 -12 44 -23 85 -11 41 -21 78
-21 83 0 12 30 8 34 -5z m2146 -18 c0 -22 -35 -130 -55 -170 -7 -14 -17 -36
-23 -50 -5 -14 -26 -59 -46 -100 -20 -42 -36 -81 -36 -87 0 -7 -4 -15 -10 -18
-11 -7 -60 23 -60 37 0 6 23 56 51 111 50 103 55 111 79 157 8 14 23 44 35 67
37 71 65 94 65 53z m-1910 -11 c0 -6 -4 -7 -10 -4 -5 3 -10 11 -10 16 0 6 5 7
10 4 6 -3 10 -11 10 -16z m3460 1 c0 -5 -5 -10 -11 -10 -5 0 -7 5 -4 10 3 6 8
10 11 10 2 0 4 -4 4 -10z m-5534 -122 c55 -57 106 -116 112 -133 7 -16 25 -37
41 -46 16 -9 47 -41 68 -70 22 -30 62 -75 89 -100 121 -113 484 -479 484 -488
0 -19 -99 31 -100 51 0 6 -179 183 -328 324 -40 38 -99 100 -130 138 -100 121
-206 239 -285 317 -72 70 -94 109 -64 109 6 0 57 -46 113 -102z m446 28 c31
-15 62 -34 69 -42 6 -7 39 -29 72 -49 59 -34 187 -115 313 -198 56 -37 93 -73
94 -89 0 -19 -32 -5 -91 39 -35 25 -96 63 -134 83 -72 38 -126 70 -135 81 -3
3 -43 31 -90 62 -47 30 -100 69 -118 86 -18 17 -37 31 -42 31 -5 0 -12 5 -15
10 -8 13 5 35 14 23 3 -5 32 -22 63 -37z m3688 -23 c-4 -16 -11 -57 -14 -93
-3 -35 -11 -69 -16 -74 -6 -6 -10 -16 -10 -23 0 -8 -8 -26 -17 -40 -10 -14
-16 -39 -14 -55 2 -24 -1 -28 -21 -28 -13 0 -33 6 -43 14 -18 13 -18 14 3 44
12 16 22 34 22 39 0 5 9 27 19 49 10 21 24 58 30 80 6 23 18 47 26 54 8 7 15
20 15 30 0 18 8 30 21 30 4 0 4 -12 -1 -27z m1080 -18 c0 -11 -24 -55 -30 -55
-4 0 -10 -8 -14 -17 -3 -10 -15 -31 -26 -48 -11 -16 -23 -37 -27 -45 -3 -8
-17 -28 -30 -43 -13 -16 -23 -32 -23 -37 0 -4 -28 -50 -62 -101 -35 -52 -74
-116 -89 -144 -22 -43 -30 -50 -55 -50 -41 0 -41 24 0 90 20 30 36 60 36 65 0
6 11 15 25 20 14 5 25 15 25 21 0 7 11 27 25 45 14 18 25 37 25 42 0 13 32 52
93 114 26 27 53 64 61 82 14 34 42 66 57 66 5 0 9 -2 9 -5z m-3105 -140 c14
-55 29 -111 34 -125 35 -100 53 -169 48 -184 -8 -20 -27 -17 -37 5 -4 8 -14
28 -23 45 -17 32 -19 44 -42 189 -8 50 -18 106 -23 125 -10 38 -5 67 9 53 5
-5 20 -53 34 -108z m143 65 c12 -16 22 -36 22 -44 0 -8 5 -18 10 -21 6 -3 10
-13 10 -21 0 -24 51 -126 82 -164 38 -46 36 -62 -4 -58 -24 2 -34 9 -36 23 -2
11 -28 70 -58 132 -29 62 -51 119 -48 127 3 8 1 17 -5 21 -13 7 -15 35 -3 35
5 0 18 -13 30 -30z m2439 -36 c-4 -35 -13 -63 -24 -75 -27 -27 -43 -47 -43
-54 0 -16 -49 -57 -60 -50 -14 8 -6 69 14 100 7 11 18 40 26 65 15 52 33 70
68 70 24 0 25 -2 19 -56z m-2209 -84 c43 -66 66 -89 106 -110 35 -17 49 -66
22 -76 -16 -6 -56 12 -56 25 0 4 -19 29 -43 55 -39 42 -118 177 -117 200 0 17
51 -38 88 -94z m-3498 -50 c194 -45 313 -79 348 -101 24 -15 30 -39 10 -39
-19 0 -148 29 -183 41 -16 6 -47 12 -67 15 -21 2 -50 10 -65 18 -16 7 -55 17
-88 21 -65 8 -146 41 -153 64 -6 18 66 11 198 -19z m-292 10 c6 0 12 -6 12
-12 0 -13 33 -36 105 -71 53 -26 95 -56 95 -68 0 -12 -45 -5 -153 23 -85 22
-98 32 -71 53 11 9 14 14 7 15 -7 0 -13 7 -13 15 0 8 -9 20 -20 27 -27 17 -25
32 3 24 12 -3 28 -6 35 -6z m1861 -47 c27 -27 71 -75 99 -108 67 -80 136 -151
195 -200 26 -22 47 -47 47 -55 0 -15 54 -73 75 -81 31 -12 155 -116 155 -131
0 -34 -55 -31 -97 6 -7 6 -24 20 -39 31 -14 11 -48 47 -76 80 -28 33 -103 114
-167 180 -64 66 -125 136 -135 155 -11 19 -43 61 -73 92 -30 32 -51 62 -48 68
9 15 10 14 64 -37z m4667 38 c-4 -5 -2 -11 4 -13 6 -2 2 -19 -10 -43 -11 -21
-20 -45 -20 -52 0 -7 -10 -29 -22 -50 -12 -21 -30 -56 -41 -77 -10 -21 -23
-44 -28 -50 -5 -6 -18 -22 -29 -36 -16 -21 -21 -22 -29 -11 -6 10 -5 24 4 41
7 14 27 56 44 93 17 37 35 67 41 67 5 0 10 6 10 14 0 17 63 125 73 126 5 0 6
-4 3 -9z m3167 -12 c7 -26 -92 -129 -155 -161 -24 -12 -49 -28 -56 -35 -7 -7
-22 -13 -33 -13 -10 0 -19 -4 -19 -9 0 -11 -80 -51 -103 -51 -33 0 -16 31 39
73 31 23 81 62 110 87 157 132 205 156 217 109z m-8918 -19 c3 -5 1 -10 -4
-10 -6 0 -11 5 -11 10 0 6 2 10 4 10 3 0 8 -4 11 -10z m45 -20 c0 -5 -2 -10
-4 -10 -3 0 -8 5 -11 10 -3 6 -1 10 4 10 6 0 11 -4 11 -10z m6363 4 c3 -4 -1
-21 -11 -38 -16 -30 -17 -30 -20 -8 -6 39 12 65 31 46z m-51 -84 c-2 -25 -7
-54 -12 -65 -5 -11 -16 -44 -25 -73 -9 -29 -23 -59 -31 -66 -8 -8 -14 -23 -14
-33 0 -10 -7 -47 -15 -83 -8 -36 -17 -82 -20 -102 -5 -29 -11 -38 -25 -38 -10
0 -21 8 -24 18 -7 21 6 90 28 147 8 22 15 61 16 87 0 26 5 50 10 53 6 3 10 13
10 22 0 9 11 39 24 67 13 28 29 66 37 84 21 49 45 38 41 -18z m1028 -9 c0 -17
-72 -146 -86 -154 -8 -4 -14 -14 -14 -20 0 -7 -18 -32 -40 -55 -22 -22 -40
-45 -40 -49 0 -5 -9 -14 -20 -21 -11 -7 -20 -20 -20 -30 0 -10 -13 -31 -30
-47 -16 -16 -30 -35 -30 -42 0 -7 -19 -33 -42 -57 -24 -25 -48 -53 -54 -63 -6
-10 -23 -19 -39 -21 l-27 -4 21 30 c11 17 21 36 21 44 0 8 14 27 30 43 17 16
30 32 30 37 0 4 9 17 20 28 11 11 20 26 20 34 0 7 9 16 19 19 11 2 28 22 39
44 12 22 28 45 36 52 9 8 16 22 16 32 0 10 9 24 20 31 11 7 20 18 20 25 0 7 4
13 9 13 20 0 67 50 89 94 13 25 30 46 38 46 8 0 14 -4 14 -9z m-7945 -41 c3
-5 -1 -10 -9 -10 -8 0 -18 5 -21 10 -3 6 1 10 9 10 8 0 18 -4 21 -10z m805
-16 c0 -9 -7 -14 -17 -12 -25 5 -28 28 -4 28 12 0 21 -6 21 -16z m-755 -4 c8
-13 -5 -13 -25 0 -13 8 -13 10 2 10 9 0 20 -4 23 -10z m8859 -19 c12 -14 14
-24 7 -42 -10 -28 -84 -83 -123 -93 -15 -3 -42 -19 -60 -35 -18 -15 -44 -32
-58 -36 -14 -4 -34 -15 -45 -25 -29 -26 -61 -33 -86 -19 -22 12 -22 12 12 41
19 16 48 36 64 45 17 9 32 19 35 22 3 3 22 15 44 26 21 11 50 32 65 48 14 15
30 27 34 27 15 0 76 32 75 38 -3 27 13 29 36 3z m46 15 c0 -2 -7 -7 -16 -10
-8 -3 -12 -2 -9 4 6 10 25 14 25 6z m-6626 -75 c3 -4 18 -11 33 -14 34 -7 168
-93 168 -109 0 -6 -8 -16 -17 -21 -13 -9 -29 -3 -74 28 -61 42 -134 106 -134
118 0 10 18 9 24 -2z m-1744 -62 c64 -20 250 -106 250 -117 0 -16 -124 11
-173 38 -30 16 -61 30 -69 30 -23 0 -138 59 -138 70 0 14 36 8 130 -21z m1602
-30 c15 -10 30 -19 34 -19 3 0 24 -15 46 -34 23 -20 60 -39 89 -46 28 -7 49
-18 49 -25 0 -16 -38 -45 -58 -45 -21 0 -102 59 -154 112 -25 26 -50 48 -55
48 -4 0 -14 9 -21 20 -12 19 -11 20 15 14 16 -3 40 -15 55 -25z m-1756 -25
c19 -9 34 -20 34 -24 0 -5 9 -12 21 -15 11 -4 35 -19 52 -34 47 -41 156 -115
207 -141 51 -26 78 -45 170 -116 36 -27 83 -61 105 -74 22 -13 75 -50 117 -82
42 -32 81 -58 87 -58 6 0 15 -8 20 -18 5 -10 38 -34 71 -53 100 -55 102 -57
111 -71 13 -20 11 -35 -7 -42 -16 -6 -107 46 -179 102 -46 36 -168 136 -183
150 -7 6 -19 12 -26 12 -6 0 -48 27 -91 61 -80 61 -142 103 -225 153 -79 47
-84 50 -130 80 -59 39 -214 165 -218 177 -6 14 27 11 64 -7z m7862 -35 c-2 -6
-27 -24 -55 -40 -41 -23 -53 -26 -62 -15 -8 10 -6 17 9 31 11 10 23 15 26 12
4 -3 16 0 28 8 24 18 59 20 54 4z m-7238 -55 c65 -22 76 -50 20 -48 -61 2
-147 33 -153 54 -9 33 21 32 133 -6z m6380 -8 c0 -8 -7 -16 -15 -20 -15 -5
-21 14 -8 27 11 12 23 8 23 -7z m699 -27 c-8 -16 -6 -19 12 -19 12 0 31 7 41
17 10 9 18 11 18 6 0 -6 -7 -13 -15 -17 -8 -3 -15 -11 -15 -19 0 -7 -32 -35
-71 -62 -39 -28 -84 -60 -99 -72 -15 -13 -38 -23 -50 -23 -12 0 -36 -15 -54
-32 -44 -44 -146 -114 -160 -111 -7 2 -28 -12 -48 -30 -19 -17 -46 -40 -59
-50 -13 -10 -41 -31 -62 -47 -47 -36 -75 -46 -90 -31 -14 14 29 60 95 102 27
17 48 35 48 40 0 5 5 9 10 9 6 0 34 19 63 43 29 23 72 53 95 67 23 14 42 31
42 38 0 7 5 10 11 7 14 -9 69 14 69 29 0 16 42 41 63 37 12 -1 20 5 24 18 3
12 13 21 22 21 9 0 24 9 34 20 9 11 24 20 33 20 11 0 15 6 11 19 -6 25 10 51
28 45 11 -5 12 -11 4 -25z m-6154 -160 c0 -9 -9 -13 -24 -11 -30 3 -31 4 -36
30 -4 20 -2 21 28 9 18 -8 32 -20 32 -28z m2575 26 c36 -3 173 -6 305 -7 238
-1 517 -12 565 -22 14 -3 81 -10 149 -16 247 -22 382 -39 535 -65 103 -18 215
-62 571 -225 50 -23 104 -48 120 -57 108 -56 166 -83 174 -83 16 0 164 -72
219 -107 29 -18 56 -33 60 -33 13 0 227 -139 261 -170 9 -8 28 -21 41 -28 74
-39 503 -380 611 -484 19 -20 45 -41 57 -47 16 -9 22 -21 22 -46 0 -18 -5 -37
-11 -41 -6 -3 -42 -54 -81 -113 -38 -58 -99 -139 -135 -179 -55 -62 -70 -73
-89 -68 -47 12 -63 1 -457 -309 -178 -140 -290 -215 -350 -234 -20 -7 -43 -18
-50 -25 -12 -12 -46 -29 -202 -100 -44 -21 -93 -44 -110 -51 -16 -8 -70 -28
-120 -45 -49 -18 -117 -43 -150 -56 -87 -34 -225 -84 -260 -94 -16 -4 -93 -29
-169 -54 -183 -60 -184 -61 -373 -90 -88 -14 -196 -34 -240 -45 -187 -47 -793
-53 -1118 -11 -82 11 -233 29 -334 40 -283 31 -688 104 -926 167 -220 59 -301
79 -425 107 -84 20 -294 80 -355 102 -22 8 -55 27 -73 42 -19 15 -48 39 -65
53 -30 25 -82 56 -324 195 -54 30 -141 84 -193 118 -52 35 -174 115 -270 179
-210 139 -329 233 -370 292 -29 42 -40 95 -20 95 6 0 10 11 10 24 0 13 7 26
15 30 8 3 15 16 15 29 0 29 31 71 95 128 119 106 195 181 195 192 0 4 6 7 14
7 8 0 27 15 42 33 15 17 40 38 57 45 16 7 40 22 53 35 40 39 91 78 153 117 34
20 69 44 78 52 10 8 38 25 63 37 25 13 56 33 70 45 14 12 39 28 55 36 17 8 50
28 75 46 25 17 70 38 100 48 75 23 130 47 130 58 0 4 5 8 11 8 6 0 45 23 87
50 42 28 86 50 97 50 12 0 25 4 31 9 8 7 160 63 289 106 57 19 115 52 115 66
0 5 7 9 15 9 9 0 34 9 56 21 22 11 79 28 127 39 48 10 107 26 132 35 240 89
269 96 455 111 99 8 250 19 335 24 85 6 209 16 275 23 116 13 197 14 335 2z
m-3325 -115 c16 -16 33 -30 38 -30 4 0 23 -11 40 -24 18 -13 43 -27 57 -31 14
-4 52 -26 85 -49 33 -23 79 -47 102 -54 52 -15 60 -27 37 -53 -25 -28 -39 -24
-113 29 -36 27 -86 61 -111 76 -94 57 -200 140 -200 158 0 19 38 6 65 -22z
m6775 -37 c0 -10 -17 -31 -38 -47 -20 -16 -47 -42 -60 -58 -15 -18 -33 -28
-50 -28 -15 0 -38 -7 -50 -16 -13 -9 -26 -13 -30 -9 -8 8 68 74 86 75 6 0 12
6 12 13 0 8 11 19 25 25 14 6 24 16 23 22 -3 12 39 38 65 39 10 1 17 -6 17
-16z m-8020 -239 c199 -4 273 -11 267 -27 -2 -7 -32 -15 -68 -20 -35 -4 -80
-9 -99 -12 -19 -2 -111 -4 -205 -5 -114 0 -165 -3 -155 -10 10 -7 -2 -8 -39
-5 -30 3 -60 10 -66 15 -19 15 -124 4 -145 -15 -40 -37 -113 3 -75 41 39 40
119 54 275 47 80 -3 219 -7 310 -9z m9790 -119 c0 -26 -7 -43 -26 -60 -15 -14
-32 -25 -39 -25 -7 0 -20 -9 -30 -20 -10 -11 -25 -20 -34 -20 -20 -1 -88 -40
-173 -100 -126 -89 -270 -162 -311 -158 -32 3 -31 4 43 58 41 31 88 62 103 70
16 8 40 25 53 37 14 13 34 23 45 23 10 0 19 5 19 10 0 6 7 10 15 10 8 0 15 5
15 10 0 6 9 10 19 10 11 0 45 22 75 49 31 26 75 61 99 77 23 16 47 34 52 40
12 14 33 22 58 23 13 1 17 -7 17 -34z m-9025 -3 c23 -6 28 -7 110 -16 81 -9
112 -23 117 -51 4 -17 0 -25 -16 -29 -11 -3 -25 -1 -30 4 -6 6 -19 10 -31 10
-11 0 -31 8 -45 17 -16 11 -57 20 -120 25 -116 10 -118 10 -156 3 -22 -5 -36
-2 -48 11 -17 17 -17 18 0 31 15 11 41 12 109 8 50 -4 99 -9 110 -13z m-976
-6 c7 -8 24 -17 39 -21 36 -8 86 -50 78 -64 -10 -16 -27 -14 -87 13 -59 26
-103 62 -94 77 9 14 51 11 64 -5z m9571 -61 c0 -28 -4 -36 -24 -41 -13 -3 -36
-19 -52 -35 -15 -16 -46 -34 -67 -40 -22 -6 -48 -19 -59 -29 -11 -10 -32 -21
-46 -25 -14 -3 -42 -19 -61 -34 -20 -15 -90 -54 -156 -87 -66 -34 -129 -65
-140 -71 -11 -6 -33 -17 -50 -24 -16 -8 -51 -26 -77 -42 -38 -23 -51 -26 -68
-17 -20 11 -28 40 -11 40 5 0 13 9 16 20 3 11 12 20 18 20 7 0 30 14 51 30 22
17 43 30 47 30 9 0 101 60 109 70 3 4 26 15 52 25 26 10 53 24 60 32 14 17
131 73 153 73 8 0 32 16 54 35 21 19 41 35 44 35 3 0 23 10 44 23 48 28 90 43
131 45 30 1 32 -1 32 -33z m-8610 -85 c63 -11 118 -20 123 -20 4 0 7 -7 7 -17
0 -14 -13 -15 -122 -9 -159 9 -267 33 -253 56 10 16 121 11 245 -10z m-516
-109 c33 -15 72 -33 86 -40 27 -12 55 -30 121 -77 24 -17 58 -34 75 -38 17 -4
46 -21 65 -39 l34 -32 -42 -3 c-37 -3 -50 3 -112 50 -39 29 -71 59 -71 66 0 6
-12 12 -27 12 -16 0 -46 11 -68 25 -22 13 -49 28 -60 34 -23 10 -83 71 -71 71
5 0 36 -13 70 -29z m-84 -13 c0 -11 -7 -10 -31 2 -28 16 -23 32 6 18 14 -6 25
-15 25 -20z m9275 -648 c224 -11 246 -16 234 -47 -11 -30 -22 -31 -244 -37
-104 -3 -203 -8 -220 -11 -115 -19 -156 -18 -200 4 -46 23 -62 38 -51 48 3 4
34 13 69 20 34 8 78 18 97 23 48 11 95 11 315 0z m-9069 -61 c36 1 55 -3 64
-14 27 -33 -3 -40 -188 -43 -97 -1 -200 -4 -229 -7 -29 -2 -54 -1 -57 4 -3 4
-39 6 -81 3 -52 -3 -75 -1 -75 7 0 11 19 16 50 13 8 -1 22 2 30 5 34 15 280
40 355 35 44 -2 103 -4 131 -3z m205 -335 c12 -14 10 -19 -15 -38 -15 -11 -41
-34 -58 -49 -17 -16 -52 -39 -77 -51 -57 -29 -144 -78 -151 -85 -3 -4 -23 -19
-45 -36 -43 -31 -92 -75 -190 -170 -73 -71 -162 -148 -178 -155 -20 -9 -127
-83 -124 -86 1 -2 29 2 62 7 33 5 86 12 117 16 38 3 63 12 74 24 9 11 28 19
41 19 13 0 51 12 86 26 34 14 80 31 102 36 58 14 278 46 365 54 46 4 93 15
120 28 30 15 61 22 93 21 26 -1 50 2 53 7 3 4 16 8 29 8 13 0 44 9 70 20 41
18 49 18 74 6 67 -35 57 -60 -22 -50 -28 4 -66 -1 -112 -15 -38 -11 -101 -30
-140 -41 -38 -11 -76 -18 -84 -15 -7 3 -20 0 -29 -7 -14 -12 -38 -15 -162 -22
-25 -1 -52 -6 -60 -11 -8 -5 -37 -12 -65 -16 -27 -5 -61 -11 -75 -14 -14 -4
-35 -8 -47 -10 -12 -2 -39 -9 -59 -15 -36 -12 -111 -32 -189 -51 -65 -15 -248
-38 -257 -33 -14 9 -68 -7 -68 -20 0 -19 -64 -48 -101 -44 -29 3 -34 7 -35 30
-1 19 5 28 20 32 16 4 18 8 8 18 -16 16 -15 29 1 27 6 -1 29 1 49 5 34 7 37
11 32 32 -7 26 -2 29 26 14 13 -7 23 -6 32 3 18 15 46 34 78 49 14 7 30 18 35
24 6 6 28 24 50 40 22 16 52 41 66 56 14 16 29 28 32 28 4 0 28 20 54 45 26
24 53 45 59 45 6 0 20 12 30 26 10 14 46 45 79 69 33 24 78 59 100 79 22 20
48 36 58 36 9 0 17 5 17 10 0 6 6 10 14 10 16 0 73 29 94 48 7 6 20 12 27 12
8 0 19 9 25 20 13 24 52 26 71 4z m8218 -39 c33 -19 73 -49 90 -65 16 -17 34
-30 39 -30 14 0 124 -59 147 -79 20 -18 48 -32 145 -72 30 -12 69 -33 87 -46
17 -12 34 -23 36 -23 13 0 131 -78 135 -88 8 -26 -30 -22 -85 9 -73 40 -149
79 -233 119 -109 51 -220 117 -220 131 0 5 -6 9 -13 9 -6 0 -57 25 -111 56
-89 50 -135 86 -136 107 -1 19 65 4 119 -28z m511 -105 c25 -16 41 -30 35 -30
-5 0 -30 14 -55 30 -25 16 -40 30 -35 30 6 0 30 -14 55 -30z m-8626 -52 c5
-10 7 -10 12 0 7 15 60 16 70 1 3 -6 17 -9 30 -6 27 5 37 -4 28 -26 -3 -9 -25
-17 -53 -21 -27 -4 -62 -13 -77 -20 -34 -17 -177 -38 -199 -30 -47 18 31 84
100 84 24 0 35 5 35 15 0 18 46 21 54 3z m7701 -28 c28 -16 60 -30 72 -30 32
0 133 -33 133 -42 0 -11 -90 0 -154 18 -27 8 -60 14 -73 14 -13 0 -40 12 -59
28 -33 26 -33 27 -12 34 37 10 41 9 93 -22z m831 -205 c16 -8 46 -15 66 -15
20 0 40 -4 43 -10 3 -5 19 -10 35 -10 16 0 58 -11 92 -24 35 -13 104 -29 153
-36 103 -16 155 -34 155 -55 0 -10 -10 -15 -32 -15 -55 0 -217 29 -337 60 -63
17 -123 30 -135 30 -25 0 -121 43 -130 59 -20 31 40 42 90 16z m-1430 -206
c46 -35 84 -78 84 -94 0 -30 -164 62 -176 99 -6 17 9 35 30 36 5 0 33 -18 62
-41z m-6466 -29 c0 -5 -12 -17 -27 -27 -16 -9 -58 -41 -95 -70 -37 -29 -70
-53 -74 -53 -4 0 -28 -22 -54 -50 -26 -27 -53 -50 -59 -50 -15 0 -112 -74
-166 -126 -21 -22 -57 -51 -80 -65 -22 -14 -89 -72 -149 -130 -59 -57 -116
-108 -125 -113 -9 -5 -38 -34 -66 -64 -27 -30 -66 -65 -85 -78 -19 -13 -51
-35 -70 -49 -88 -64 -120 -78 -120 -56 0 10 100 111 191 195 30 27 104 96 164
155 122 117 193 177 245 205 19 10 52 31 72 47 20 16 42 29 48 29 6 0 22 11
36 25 13 13 55 49 92 80 37 30 99 82 137 115 39 33 75 60 80 60 6 0 23 12 39
25 23 18 34 21 48 14 10 -5 18 -14 18 -19z m-415 -29 c10 -18 -17 -23 -33 -7
-15 15 -15 16 5 16 12 0 24 -4 28 -9z m673 -84 c2 -15 -1 -27 -6 -27 -5 0 -45
-19 -88 -43 -50 -28 -86 -42 -101 -39 -13 2 -23 8 -23 12 0 23 172 132 200
127 8 -1 16 -15 18 -30z m6021 -6 c43 -22 101 -74 101 -90 0 -23 -50 -10 -97
25 -71 54 -83 66 -77 75 8 14 32 11 73 -10z m-6241 -119 c2 -7 -4 -15 -13 -18
-20 -8 -27 -1 -19 20 7 18 25 17 32 -2z m6572 -102 c12 -7 21 -7 25 0 6 10
112 -44 130 -67 9 -11 127 -73 139 -73 17 0 241 -110 286 -140 26 -17 80 -44
165 -79 28 -12 58 -26 67 -31 10 -6 26 -10 37 -10 20 0 98 -39 191 -95 30 -18
82 -44 115 -58 33 -14 118 -55 189 -91 70 -36 134 -66 141 -66 16 0 75 -48 75
-61 0 -5 -7 -9 -15 -9 -18 0 -200 77 -330 140 -55 27 -131 63 -168 80 -37 17
-89 43 -115 59 -26 15 -76 38 -112 51 -76 27 -218 96 -280 135 -48 30 -289
147 -330 160 -14 4 -43 20 -65 35 -22 15 -51 31 -65 35 -37 11 -129 67 -134
82 -6 16 27 17 54 3z m-6072 -30 c-27 -17 -52 -30 -58 -30 -22 0 -3 36 20 38
26 1 49 8 56 15 4 4 12 7 18 7 6 0 -10 -14 -36 -30z m5268 -5 c53 -46 66 -60
92 -95 14 -19 31 -39 37 -45 5 -5 29 -34 52 -63 61 -77 242 -264 358 -367 103
-92 115 -105 115 -117 0 -23 -42 1 -130 72 -119 96 -197 174 -305 300 -110
130 -226 243 -287 282 -16 10 -28 27 -28 38 0 30 59 27 96 -5z m-260 -74 c28
-27 73 -63 101 -79 115 -68 233 -170 233 -202 0 -11 -4 -20 -9 -20 -6 0 -52
33 -104 73 -51 39 -115 83 -141 97 -51 25 -166 133 -166 154 0 16 10 26 25 26
6 0 34 -22 61 -49z m643 -65 c74 -45 192 -172 350 -375 23 -31 67 -80 97 -110
30 -29 54 -55 54 -56 0 -2 14 -18 31 -36 61 -65 169 -197 169 -206 0 -5 16
-25 35 -45 19 -21 44 -56 56 -80 12 -24 27 -50 34 -58 7 -8 16 -30 20 -47 6
-29 4 -33 -13 -33 -14 0 -30 17 -51 53 -17 28 -49 77 -71 107 -22 30 -44 64
-49 75 -5 12 -16 27 -25 34 -9 7 -16 18 -16 23 0 5 -26 37 -58 71 -167 177
-237 256 -294 330 -84 111 -178 218 -265 303 -98 95 -99 107 -4 50z m-7206 -2
c7 -8 -72 -104 -85 -104 -5 0 -37 -24 -71 -52 -34 -29 -67 -57 -74 -63 -7 -5
-47 -44 -87 -85 -163 -164 -168 -171 -162 -196 10 -40 -56 -87 -99 -70 -23 8
-18 52 8 73 12 10 29 32 37 48 12 25 305 325 318 325 5 0 114 91 127 107 6 6
24 14 40 16 17 2 33 5 36 6 3 0 8 -2 12 -5z m6317 -21 c13 -9 31 -24 40 -32 9
-9 32 -30 52 -48 40 -34 52 -65 27 -71 -15 -3 -146 105 -162 134 -8 14 -2 34
11 34 4 0 18 -8 32 -17z m-4892 -57 c-10 -7 -18 -19 -18 -27 0 -15 -21 -41
-135 -171 -38 -44 -89 -103 -113 -132 -24 -28 -109 -117 -188 -199 -79 -81
-144 -150 -144 -152 0 -5 -79 -85 -183 -184 -31 -30 -59 -52 -63 -49 -13 14
21 86 69 148 28 36 54 67 59 68 4 2 8 12 8 23 0 13 7 19 21 19 12 0 23 8 26
20 3 11 8 20 12 20 4 0 42 33 85 73 42 39 107 99 144 132 92 82 248 256 244
272 -2 7 2 13 7 13 5 0 20 18 32 40 13 23 33 43 46 46 13 4 28 14 33 24 9 16
28 24 65 28 6 1 2 -5 -7 -12z m409 -17 c22 -22 -13 -67 -92 -119 -47 -30 -83
-60 -185 -155 -108 -101 -157 -137 -182 -133 -40 6 -29 26 44 87 40 34 85 73
100 86 15 14 31 25 36 25 4 0 27 16 49 35 23 19 46 35 52 35 6 0 17 11 23 25
6 14 19 25 29 25 10 0 26 12 36 28 41 65 67 84 90 61z m273 -84 c9 -11 5 -24
-23 -67 -20 -29 -50 -80 -67 -113 -40 -77 -111 -177 -129 -183 -20 -7 -5 50
31 117 16 29 41 76 55 102 14 27 29 49 34 49 5 0 9 11 9 25 0 14 4 25 8 25 4
0 16 14 25 30 20 33 38 38 57 15z m4240 -396 c251 -251 302 -309 271 -309 -18
0 -123 95 -301 270 -96 95 -204 199 -238 231 -64 60 -74 89 -33 89 13 0 122
-102 301 -281z m-896 252 c10 -11 28 -59 41 -108 13 -49 35 -124 49 -167 13
-42 20 -76 14 -74 -9 3 -24 31 -79 140 -5 10 -9 24 -9 32 0 12 -19 60 -56 144
-23 50 4 72 40 33z m466 -47 c22 -20 40 -41 40 -46 0 -5 21 -36 48 -68 26 -33
70 -92 97 -131 28 -39 58 -81 67 -92 10 -12 42 -55 73 -96 30 -41 68 -89 83
-105 15 -17 40 -49 57 -71 16 -22 46 -58 66 -80 36 -39 226 -291 263 -349 34
-54 248 -320 306 -381 60 -64 88 -105 70 -105 -5 0 -10 4 -10 8 0 5 -20 22
-44 39 -59 42 -261 285 -394 474 -37 52 -82 113 -99 135 -18 21 -64 77 -103
124 -80 98 -300 372 -330 412 -11 14 -20 31 -20 37 0 5 -6 14 -13 18 -7 4 -26
27 -43 50 -16 22 -60 80 -97 128 -75 96 -96 135 -72 135 8 0 33 -16 55 -36z
m865 26 c3 -5 -1 -10 -9 -10 -9 0 -16 5 -16 10 0 6 4 10 9 10 6 0 13 -4 16
-10z m-4471 -33 c-3 -9 -12 -17 -20 -17 -8 0 -11 -6 -7 -16 3 -9 2 -19 -3 -23
-5 -3 -15 -17 -22 -31 -33 -65 -47 -87 -68 -112 -12 -16 -26 -38 -29 -50 -19
-60 -93 -195 -116 -209 -47 -29 -51 11 -9 70 17 23 33 56 37 74 8 47 85 176
105 177 11 0 18 12 23 40 5 30 19 53 53 86 43 43 71 48 56 11z m324 -22 c2
-13 -14 -36 -47 -67 -28 -26 -75 -82 -106 -125 -87 -121 -115 -157 -131 -166
-8 -4 -14 -15 -14 -24 0 -8 -36 -52 -80 -97 -44 -45 -80 -87 -80 -92 0 -6 -22
-37 -49 -70 -26 -33 -60 -81 -75 -106 -33 -57 -53 -75 -67 -61 -29 29 69 183
234 368 49 55 100 116 113 135 12 19 43 57 68 84 26 27 46 52 46 55 0 11 79
91 90 91 6 0 8 5 5 10 -3 6 1 13 9 16 9 3 13 10 10 16 -9 13 37 59 56 56 8 -2
16 -12 18 -23z m602 -10 c13 -33 3 -55 -24 -55 -27 0 -46 17 -40 36 2 8 6 21
9 29 7 25 44 18 55 -10z m2026 -78 c13 -28 24 -59 24 -69 0 -10 4 -26 9 -36
28 -53 80 -174 86 -201 14 -67 -18 -27 -74 92 -113 236 -119 252 -109 264 16
20 38 3 64 -50z m-1786 34 c16 -31 12 -48 -20 -84 -16 -19 -30 -43 -30 -54 0
-19 -158 -300 -189 -338 -10 -11 -32 -49 -50 -84 -37 -74 -81 -131 -98 -131
-17 0 -17 29 0 49 7 9 21 41 31 71 11 30 38 84 61 120 47 72 124 216 145 270
7 19 23 49 35 65 12 17 26 41 30 55 11 36 44 80 60 80 8 0 19 -9 25 -19z
m1471 -48 c52 -57 98 -137 99 -171 0 -13 11 -38 24 -55 13 -18 32 -48 41 -67
28 -55 90 -135 211 -270 104 -117 244 -300 244 -318 0 -5 39 -52 86 -106 71
-81 114 -145 114 -170 0 -3 -11 0 -25 6 -36 16 -150 155 -267 322 -22 32 -66
89 -97 125 -30 36 -65 77 -76 90 -11 14 -34 41 -51 60 -58 68 -160 206 -189
256 -16 28 -46 75 -67 106 -21 31 -38 60 -38 64 0 5 -6 16 -14 24 -18 21 -66
109 -66 121 0 21 47 9 71 -17z m-1193 5 c18 -18 15 -33 -12 -59 -26 -26 -96
-155 -96 -176 0 -7 -4 -13 -10 -13 -11 0 -67 -59 -84 -89 -29 -50 -77 -114
-141 -190 -38 -47 -76 -92 -83 -100 -30 -37 3 66 41 129 55 90 168 254 179
258 4 2 8 10 8 18 0 8 5 14 10 14 6 0 10 8 10 18 0 9 20 40 45 67 25 28 54 69
66 93 21 43 44 53 67 30z m3336 -57 c11 -12 29 -21 40 -21 20 -1 110 -55 242
-145 32 -22 74 -49 93 -61 137 -80 267 -169 366 -249 17 -14 33 -25 37 -25 4
0 38 -21 75 -47 38 -26 107 -73 156 -106 48 -32 87 -63 87 -68 0 -44 -94 5
-306 157 -180 130 -318 223 -364 248 -19 10 -51 32 -70 47 -19 16 -38 29 -43
29 -5 0 -27 15 -50 34 -23 18 -55 41 -72 50 -101 56 -123 70 -150 95 -16 15
-51 42 -77 60 -47 31 -55 41 -42 54 8 7 50 -21 78 -52z m-3917 13 c3 -9 -4
-39 -16 -68 -11 -28 -21 -55 -21 -59 0 -5 -11 -25 -25 -45 l-25 -37 0 43 c0
24 7 56 15 72 8 16 12 36 9 44 -8 20 21 66 42 66 8 0 17 -7 21 -16z m1455 -55
c26 -28 69 -79 94 -113 25 -33 66 -82 90 -107 24 -26 44 -52 44 -58 0 -7 7
-14 15 -17 8 -4 15 -12 15 -19 0 -13 56 -79 193 -227 49 -54 97 -108 105 -120
9 -13 39 -49 67 -81 46 -51 94 -137 77 -137 -4 0 -20 15 -37 33 -74 83 -195
218 -251 282 -139 158 -168 192 -197 235 -54 79 -158 203 -264 318 -49 52 -52
62 -21 62 14 0 40 -20 70 -51z m-3052 27 c0 -24 -36 -61 -83 -84 -25 -12 -50
-29 -57 -37 -7 -8 -17 -15 -22 -15 -9 0 -81 -51 -127 -91 -14 -12 -35 -25 -48
-30 -13 -5 -23 -13 -23 -19 0 -5 -6 -10 -14 -10 -7 0 -20 -7 -27 -16 -7 -9
-37 -31 -66 -50 -29 -19 -53 -38 -53 -42 0 -5 -20 -23 -43 -40 -24 -17 -82
-67 -128 -112 -93 -90 -92 -88 -181 -158 -35 -27 -73 -53 -86 -56 -21 -7 -22
-5 -16 21 11 41 69 107 146 164 37 28 80 64 95 82 34 37 133 123 183 158 19
13 55 40 80 59 41 33 76 57 122 85 80 49 176 113 191 128 12 12 28 17 44 14
17 -3 23 -1 19 9 -3 8 1 14 9 14 8 0 15 5 15 10 0 11 35 28 58 29 6 1 12 -5
12 -13z m1115 -256 c14 -23 -50 -102 -142 -177 -88 -70 -244 -212 -318 -288
-16 -17 -43 -39 -60 -49 -80 -50 -368 -318 -533 -496 -62 -67 -137 -130 -224
-189 -43 -28 -106 -78 -142 -111 -57 -54 -93 -76 -84 -51 3 10 91 111 148 170
19 20 60 53 90 73 76 49 190 151 261 233 40 46 174 173 264 249 166 142 201
174 309 278 62 59 125 118 142 130 59 44 229 197 242 218 13 21 37 27 47 10z
m-895 -160 c0 -5 -10 -10 -22 -10 -19 0 -20 2 -8 10 19 13 30 13 30 0z m-18
-43 c-2 -12 -12 -30 -20 -40 -8 -9 -20 -25 -26 -35 -28 -47 -74 -110 -104
-142 -17 -19 -32 -40 -32 -47 0 -7 -11 -32 -24 -55 -13 -24 -29 -59 -35 -79
-6 -20 -25 -51 -42 -70 -34 -38 -99 -163 -99 -190 0 -10 -4 -20 -8 -23 -5 -3
-30 -49 -56 -103 -26 -54 -78 -161 -116 -238 -38 -77 -71 -151 -75 -165 -10
-35 -74 -112 -87 -104 -15 10 -1 82 22 112 11 13 20 30 20 36 0 6 50 112 111
234 60 123 114 234 120 245 5 12 19 38 30 57 12 19 38 66 58 104 19 39 50 85
68 103 18 18 33 36 33 41 0 17 31 72 41 72 5 0 9 11 9 25 0 33 16 67 77 160
29 44 53 83 53 87 0 10 46 33 69 35 14 1 18 -3 13 -20z m1805 -32 c-6 -19 -14
-35 -19 -35 -4 0 -8 -6 -8 -14 0 -8 -21 -42 -47 -76 -27 -33 -75 -100 -109
-148 -46 -65 -69 -90 -94 -98 -29 -10 -89 -67 -90 -86 0 -3 -18 -25 -40 -48
-22 -23 -40 -46 -40 -51 0 -5 -72 -82 -159 -171 -114 -115 -164 -159 -175
-155 -18 7 -14 40 10 88 17 34 188 224 237 264 49 40 121 108 138 132 8 10 41
41 74 68 79 66 74 61 150 151 37 43 82 97 102 119 19 22 42 52 51 68 23 38 32
34 19 -8z m-2562 -85 c3 -5 1 -10 -4 -10 -6 0 -11 5 -11 10 0 6 2 10 4 10 3 0
8 -4 11 -10z m2055 -49 c0 -11 -16 -53 -35 -94 -19 -41 -35 -80 -35 -86 0 -18
-18 -13 -24 7 -10 33 30 155 60 177 26 19 34 19 34 -4z m-2596 -60 c3 -5 -1
-12 -10 -15 -8 -3 -12 -11 -9 -16 4 -6 -6 -22 -22 -36 -15 -13 -37 -33 -48
-43 -11 -10 -33 -27 -50 -37 -16 -10 -49 -33 -73 -51 -51 -39 -58 -40 -72 -13
-13 24 3 60 25 60 8 0 15 3 15 8 0 11 126 102 142 102 8 0 25 11 38 25 24 25
54 33 64 16z m71 -232 c-10 -15 -25 -10 -19 6 4 8 10 12 15 9 5 -3 7 -10 4
-15z"/>
<path d="M5338 13053 c7 -3 16 -2 19 1 4 3 -2 6 -13 5 -11 0 -14 -3 -6 -6z"/>
<path d="M10020 12343 c-19 -2 -118 -17 -220 -34 -233 -39 -279 -55 -476 -175
-203 -123 -375 -289 -461 -445 -65 -118 -96 -213 -121 -359 -53 -319 -5 -690
123 -962 59 -125 121 -210 232 -319 75 -73 286 -229 310 -229 4 0 40 -16 78
-36 66 -34 250 -95 375 -125 70 -17 387 -19 398 -3 15 23 61 38 187 60 188 33
223 41 295 71 70 29 207 113 281 172 58 46 189 188 242 264 23 31 45 57 49 57
4 0 8 5 8 11 0 5 18 37 40 69 22 33 43 68 47 77 4 10 16 32 29 48 12 17 31 50
42 75 11 25 30 67 42 94 74 165 102 465 61 648 -37 161 -173 405 -320 576 -83
96 -268 226 -451 318 -173 87 -290 127 -420 144 -71 9 -294 11 -370 3z m380
-253 c8 -5 12 -12 8 -15 -9 -9 -48 4 -48 16 0 12 21 11 40 -1z m-144 -7 c-4
-4 -23 -6 -42 -4 -19 1 -34 -2 -34 -8 0 -6 -7 -8 -15 -5 -8 3 -28 1 -45 -4
-17 -6 -32 -7 -35 -2 -3 5 11 12 32 15 21 4 43 8 48 10 20 7 98 5 91 -2z m54
-1 c0 -8 64 -36 85 -37 24 -2 128 -61 132 -75 5 -21 80 -63 88 -50 3 6 -1 13
-9 16 -9 3 -14 10 -11 14 6 10 -43 50 -61 50 -8 0 -11 6 -8 15 5 11 -1 15 -22
15 -34 0 -76 20 -82 38 -5 15 54 17 63 2 4 -6 15 -8 24 -5 25 8 101 -27 133
-61 100 -109 105 -277 12 -425 -52 -83 -191 -178 -303 -209 -125 -33 -296 48
-400 190 -58 80 -90 153 -97 226 -5 51 8 114 25 114 3 0 17 16 30 35 13 19 32
37 42 40 10 4 19 12 19 19 0 7 12 19 28 27 15 8 30 18 33 23 9 11 39 0 39 -14
0 -5 -7 -10 -15 -10 -8 0 -15 -4 -15 -8 0 -17 25 -32 55 -31 28 0 28 1 8 9
-33 13 -28 23 7 18 17 -3 33 -1 36 4 3 4 -2 8 -10 8 -9 0 -16 5 -16 10 0 17
18 11 46 -15 19 -18 38 -25 66 -25 24 0 37 4 33 10 -3 6 -19 10 -34 10 -27 0
-51 16 -51 33 0 5 13 6 30 2 16 -4 35 -3 42 1 7 5 26 7 42 5 18 -2 26 1 22 8
-4 6 -14 11 -22 11 -8 0 -12 5 -9 10 7 12 25 13 25 2z m265 -120 c-3 -3 -11 0
-18 7 -9 10 -8 11 6 5 10 -3 15 -9 12 -12z m-1210 -52 c3 -6 -1 -7 -9 -4 -18
7 -21 14 -7 14 6 0 13 -4 16 -10z m25 -40 c0 -5 -5 -10 -11 -10 -5 0 -7 5 -4
10 3 6 8 10 11 10 2 0 4 -4 4 -10z m-20 -42 c0 -6 -6 -5 -15 2 -8 7 -15 14
-15 16 0 2 7 1 15 -2 8 -4 15 -11 15 -16z m5 -34 c13 -5 14 -8 3 -15 -19 -12
-25 -11 -32 6 -6 16 3 19 29 9z m-280 -40 c-9 -15 -12 -23 -6 -20 6 4 16 -4
22 -21 l11 -28 10 25 c8 22 11 23 19 8 12 -22 0 -51 -18 -44 -8 4 -27 9 -41
12 l-27 7 23 -23 c13 -12 31 -20 41 -17 15 4 18 -1 16 -27 -2 -27 -7 -31 -33
-34 -17 -2 -44 4 -61 12 -35 19 -41 19 -41 6 0 -5 3 -9 8 -8 4 1 22 -6 41 -16
20 -10 45 -16 60 -13 25 5 26 4 29 -50 l3 -55 -32 7 c-22 5 -29 4 -25 -4 4 -6
18 -11 31 -11 29 0 34 -6 36 -56 1 -21 5 -43 9 -49 4 -5 13 -32 19 -59 9 -37
9 -51 1 -56 -8 -5 -5 -9 7 -12 13 -3 27 -27 42 -67 24 -66 93 -193 123 -227
10 -11 18 -24 18 -28 0 -11 98 -124 133 -155 35 -30 29 -36 -17 -17 -20 8 -36
11 -36 7 0 -10 45 -31 66 -31 21 0 94 -52 94 -67 0 -6 16 -20 35 -30 18 -10
72 -40 119 -66 106 -60 163 -76 302 -84 132 -7 256 11 404 60 104 34 285 123
332 162 16 14 33 25 38 25 8 0 42 27 82 66 9 9 21 13 27 9 6 -3 11 0 11 8 0
21 66 77 92 77 17 0 19 3 10 12 -8 8 -1 23 31 61 23 27 61 75 83 106 23 31 48
63 55 71 8 9 20 31 27 50 8 19 23 58 34 85 12 28 26 74 32 103 5 28 13 52 16
52 4 0 26 -45 50 -105 17 -44 28 -124 26 -210 -1 -80 -3 -90 -18 -87 -22 3
-24 -14 -4 -21 11 -5 13 -16 9 -44 -3 -21 -9 -40 -12 -43 -3 -3 -7 -18 -8 -33
-1 -15 -9 -42 -17 -59 -9 -17 -16 -39 -16 -50 0 -10 -4 -18 -10 -18 -5 0 -10
-7 -10 -15 0 -41 -160 -302 -264 -430 -93 -116 -241 -240 -372 -314 -80 -44
-211 -82 -349 -100 -408 -54 -444 -54 -660 14 -120 37 -247 110 -384 219 -66
53 -201 212 -232 275 -7 14 -22 38 -32 54 -10 15 -20 38 -21 51 -1 13 -10 36
-19 50 -9 14 -17 32 -17 40 0 8 -4 18 -10 21 -16 10 -12 25 8 26 14 0 13 2 -4
9 -14 6 -23 21 -27 46 -4 21 -5 40 -3 42 6 5 187 -37 208 -49 35 -19 32 -8 -6
17 -28 20 -35 28 -25 35 15 9 16 8 -32 37 -20 12 -46 22 -58 22 -11 0 -21 4
-21 8 0 5 -17 9 -37 10 -31 0 -34 -1 -17 -8 12 -5 25 -13 28 -18 3 -6 29 -16
56 -23 58 -15 68 -34 13 -25 -21 4 -57 9 -80 12 -24 4 -43 11 -44 18 0 6 -2
20 -5 31 -2 11 -6 45 -8 75 -9 109 -17 186 -21 213 -2 15 -2 41 2 57 4 24 11
30 32 31 l26 0 -25 12 c-30 14 -41 27 -33 41 4 5 7 44 8 87 1 43 7 85 14 92 6
8 9 22 5 31 -10 26 22 19 45 -11 25 -30 36 -25 27 13 -5 19 -12 25 -26 21 -23
-6 -56 16 -46 31 4 6 13 9 21 5 9 -3 15 1 15 10 0 8 -6 17 -12 20 -15 5 61
166 92 197 10 10 23 28 30 39 6 12 16 21 22 21 6 0 3 -11 -7 -26z m272 -100
c12 -3 20 -11 17 -18 -2 -6 8 -19 23 -28 19 -12 23 -18 11 -18 -9 0 -23 -3
-31 -6 -10 -3 -18 2 -22 15 -3 12 -15 21 -26 21 -21 0 -22 1 -13 24 7 18 9 18
41 10z m-4 -90 c-7 -3 -10 -11 -7 -19 7 -18 -8 -26 -26 -14 -13 8 -12 12 4 24
11 8 25 15 30 14 6 0 6 -3 -1 -5z m64 -40 c24 -24 25 -27 10 -36 -10 -5 -22
-6 -29 -2 -8 5 -9 2 -5 -10 6 -14 2 -16 -24 -12 -17 2 -34 7 -37 11 -8 8 20
25 30 19 12 -7 48 6 48 17 0 5 -9 9 -19 9 -21 0 -34 13 -24 24 11 11 24 6 50
-20z m16 -114 c3 -11 0 -20 -5 -20 -6 0 -5 -6 2 -15 7 -8 18 -15 24 -15 18 0
59 -47 48 -54 -6 -3 -22 -2 -36 4 -39 14 -31 -5 10 -25 19 -9 38 -24 41 -33 3
-9 17 -27 31 -39 30 -25 25 -40 -7 -23 -13 7 -21 7 -21 1 0 -6 14 -17 30 -26
17 -9 30 -22 30 -29 0 -7 11 -21 24 -32 14 -10 23 -21 20 -25 -2 -4 12 -19 32
-34 19 -15 33 -29 31 -31 -6 -6 -71 18 -85 33 -7 7 -20 13 -28 13 -7 0 -23 18
-34 40 -14 27 -27 40 -41 40 -15 0 -19 5 -15 18 4 13 -1 23 -19 32 -14 7 -25
17 -25 22 0 11 18 10 25 -2 4 -6 11 -8 16 -4 14 8 -9 34 -32 34 -10 0 -21 5
-24 10 -3 6 -1 10 6 10 7 0 5 8 -7 21 -12 13 -25 18 -40 15 -13 -4 -26 -2 -29
4 -3 5 0 10 8 10 8 0 26 6 41 13 l25 14 -20 21 c-11 12 -27 22 -37 22 -14 0
-14 2 -3 9 8 5 11 16 8 25 -5 12 0 16 22 16 20 0 30 -6 34 -20z m42 0 c3 -5 1
-10 -4 -10 -6 0 -11 5 -11 10 0 6 2 10 4 10 3 0 8 -4 11 -10z m80 -140 c8 -13
-5 -13 -25 0 -13 8 -13 10 2 10 9 0 20 -4 23 -10z m-39 -207 c-7 -7 -26 7 -26
19 0 6 6 6 15 -2 9 -7 13 -15 11 -17z m59 -37 c8 -8 39 -22 70 -31 32 -10 55
-24 55 -32 0 -7 11 -18 24 -23 13 -5 30 -17 37 -28 8 -11 30 -23 49 -27 60
-13 70 -27 15 -20 -27 4 -60 13 -72 21 -25 16 -93 19 -93 4 0 -5 10 -10 23
-10 35 0 51 -14 33 -29 -12 -10 -20 -9 -40 6 -14 10 -28 24 -31 32 -7 17 14
33 33 26 7 -3 12 4 12 18 0 30 -54 55 -82 38 -17 -11 -21 -8 -31 18 -6 16 -20
34 -31 40 -19 9 -19 10 -3 10 10 1 25 -5 32 -13z m580 -16 c16 -7 13 -9 -17
-9 -20 -1 -40 4 -43 9 -7 12 32 12 60 0z m-505 -61 c0 -11 -3 -11 -24 -3 -23
9 -20 23 4 17 11 -3 20 -9 20 -14z m168 -122 c23 -18 12 -27 -33 -25 -25 0
-50 7 -56 15 -8 9 -8 13 0 13 6 0 11 7 11 14 0 12 6 13 33 4 17 -6 38 -15 45
-21z m68 7 c20 -4 62 -20 93 -35 55 -28 56 -29 22 -29 -19 0 -42 7 -52 16 -10
9 -39 19 -63 21 -25 3 -43 9 -41 14 3 4 -3 13 -12 19 -15 10 -16 11 -1 6 9 -3
33 -8 54 -12z m-96 -54 c0 -5 -4 -10 -10 -10 -5 0 -10 5 -10 10 0 6 5 10 10
10 6 0 10 -4 10 -10z m54 1 c17 -7 26 -7 29 2 3 8 10 7 24 -5 11 -10 27 -18
37 -18 9 0 14 -4 11 -10 -7 -11 -90 -3 -122 12 -12 6 -20 15 -17 20 6 10 7 10
38 -1z m256 -17 c0 -2 -9 -4 -20 -4 -11 0 -20 4 -20 9 0 5 9 7 20 4 11 -3 20
-7 20 -9z m-140 -34 c0 -5 -4 -10 -10 -10 -5 0 -10 5 -10 10 0 6 5 10 10 10 6
0 10 -4 10 -10z m-55 -10 c3 -5 -1 -10 -9 -10 -9 0 -16 5 -16 10 0 6 4 10 9
10 6 0 13 -4 16 -10z m112 4 c-3 -3 -12 -4 -19 -1 -8 3 -5 6 6 6 11 1 17 -2
13 -5z m128 -4 c-3 -5 -13 -10 -21 -10 -8 0 -14 5 -14 10 0 6 9 10 21 10 11 0
17 -4 14 -10z m179 -1 c-3 -5 -13 -9 -22 -9 -20 0 -89 -23 -98 -33 -14 -14
-42 -7 -46 11 -4 15 -1 18 20 14 19 -4 24 -1 20 9 -4 12 8 15 63 15 38 1 66
-3 63 -7z m-198 -30 c21 -24 -1 -26 -30 -4 -25 19 -37 19 -30 0 7 -18 4 -18
-61 -1 -58 15 -45 22 42 23 49 0 66 -4 79 -18z"/>
<path d="M10295 12020 c-3 -5 1 -10 10 -10 9 0 13 5 10 10 -3 6 -8 10 -10 10
-2 0 -7 -4 -10 -10z"/>
<path d="M10030 11965 c0 -11 11 -15 43 -14 23 1 33 3 22 6 -11 3 -24 9 -29
14 -15 14 -36 11 -36 -6z"/>
<path d="M10453 11963 c9 -2 23 -2 30 0 6 3 -1 5 -18 5 -16 0 -22 -2 -12 -5z"/>
<path d="M10135 11940 c27 -12 35 -12 35 0 0 6 -12 10 -27 9 -25 0 -26 -1 -8
-9z"/>
<path d="M10460 11940 c0 -6 7 -10 15 -10 8 0 15 2 15 4 0 2 -7 6 -15 10 -8 3
-15 1 -15 -4z"/>
<path d="M9995 11920 c3 -5 21 -10 38 -9 27 0 29 2 12 9 -28 12 -57 12 -50 0z"/>
<path d="M10510 11926 c0 -2 7 -6 15 -10 8 -3 15 -1 15 4 0 6 -7 10 -15 10 -8
0 -15 -2 -15 -4z"/>
<path d="M10070 11879 c0 -5 18 -9 40 -9 22 0 40 4 40 9 0 4 -18 8 -40 8 -22
0 -40 -4 -40 -8z"/>
<path d="M10510 11880 c0 -5 5 -10 10 -10 6 0 10 5 10 10 0 6 -4 10 -10 10 -5
0 -10 -4 -10 -10z"/>
<path d="M10550 11880 c0 -5 10 -10 23 -10 18 0 19 2 7 10 -19 13 -30 13 -30
0z"/>
<path d="M10600 11881 c0 -11 26 -22 34 -14 3 3 3 10 0 14 -7 12 -34 11 -34 0z"/>
<path d="M10020 11846 c0 -7 9 -16 21 -19 29 -8 14 -27 -22 -27 -53 0 -30 -15
26 -17 65 -2 75 7 34 31 -16 9 -29 24 -29 32 0 8 -7 14 -15 14 -8 0 -15 -6
-15 -14z"/>
<path d="M10100 11845 c7 -8 20 -15 28 -15 13 0 12 3 -4 15 -25 19 -40 19 -24
0z"/>
<path d="M10470 11833 c0 -8 11 -13 28 -13 16 0 37 -7 48 -15 10 -8 25 -15 33
-15 10 0 9 4 -5 14 -27 20 -15 26 30 16 36 -8 38 -7 23 8 -22 21 -157 26 -157
5z"/>
<path d="M10187 11814 c-7 -7 2 -34 12 -34 4 0 7 9 8 20 2 19 -8 26 -20 14z"/>
<path d="M10415 11810 c-7 -12 18 -24 37 -18 8 3 5 9 -9 16 -14 8 -24 9 -28 2z"/>
<path d="M10498 11793 c7 -3 16 -2 19 1 4 3 -2 6 -13 5 -11 0 -14 -3 -6 -6z"/>
<path d="M10100 11764 c-10 -12 -8 -14 14 -14 28 0 35 14 12 23 -8 3 -20 -1
-26 -9z"/>
<path d="M10490 11760 c-21 -7 -19 -8 18 -9 23 -1 42 4 42 9 0 12 -24 12 -60
0z"/>
<path d="M10110 11720 c-12 -8 -9 -10 12 -10 15 0 42 -9 60 -20 18 -11 49 -20
68 -20 50 0 80 -10 80 -26 0 -8 7 -14 15 -14 9 0 12 6 8 16 -5 13 -2 15 17 9
16 -5 21 -4 18 6 -3 8 -18 16 -34 20 -16 3 -39 11 -51 18 -17 9 -23 9 -23 0 0
-15 -59 -6 -102 15 -36 18 -47 19 -68 6z"/>
<path d="M10600 11720 c0 -5 7 -10 16 -10 8 0 12 5 9 10 -3 6 -10 10 -16 10
-5 0 -9 -4 -9 -10z"/>
<path d="M10528 11713 c7 -3 16 -2 19 1 4 3 -2 6 -13 5 -11 0 -14 -3 -6 -6z"/>
<path d="M10055 11687 c11 -6 40 -12 65 -14 41 -4 43 -3 27 11 -10 8 -39 14
-65 14 -39 0 -43 -1 -27 -11z"/>
<path d="M10410 11681 c0 -8 8 -10 19 -6 11 3 28 1 39 -6 11 -7 30 -9 47 -5
39 10 27 16 -44 22 -44 5 -61 3 -61 -5z"/>
<path d="M10418 11653 c7 -3 16 -2 19 1 4 3 -2 6 -13 5 -11 0 -14 -3 -6 -6z"/>
<path d="M10218 11643 c6 -2 18 -2 25 0 6 3 1 5 -13 5 -14 0 -19 -2 -12 -5z"/>
<path d="M10125 11630 c-3 -5 1 -10 9 -10 9 0 16 -4 16 -9 0 -5 14 -14 30 -21
24 -10 33 -10 45 0 12 10 21 10 38 2 39 -19 57 -22 79 -13 19 7 15 9 -23 16
-24 4 -68 8 -96 9 -29 2 -56 6 -60 9 -3 4 -1 7 5 7 7 0 12 5 12 10 0 6 -11 10
-24 10 -14 0 -28 -4 -31 -10z"/>
<path d="M10515 11620 c-3 -5 -18 -10 -32 -10 -15 0 -24 -3 -20 -6 9 -9 77 5
77 16 0 13 -17 13 -25 0z"/>
<path d="M10395 11610 c3 -5 13 -10 21 -10 8 0 14 5 14 10 0 6 -9 10 -21 10
-11 0 -17 -4 -14 -10z"/>
<path d="M10425 11570 c3 -5 12 -7 20 -3 21 7 19 13 -6 13 -11 0 -18 -4 -14
-10z"/>
<path d="M10259 11547 c10 -10 131 -15 137 -5 3 4 2 8 -3 8 -89 5 -140 3 -134
-3z"/>
<path d="M8990 11570 c0 -5 5 -10 10 -10 6 0 10 5 10 10 0 6 -4 10 -10 10 -5
0 -10 -4 -10 -10z"/>
<path d="M8992 11520 c-10 -17 -10 -21 3 -25 8 -3 22 -7 30 -10 20 -6 19 11
-1 19 -9 4 -14 13 -10 21 8 22 -7 18 -22 -5z"/>
<path d="M9045 11530 c3 -5 10 -10 16 -10 5 0 9 5 9 10 0 6 -7 10 -16 10 -8 0
-12 -4 -9 -10z"/>
<path d="M9080 11510 c0 -5 4 -10 9 -10 5 0 18 -3 28 -6 16 -5 16 -4 -1 10
-23 18 -36 20 -36 6z"/>
<path d="M9010 11451 c0 -9 34 -21 60 -21 9 1 5 7 -10 15 -29 16 -50 19 -50 6z"/>
<path d="M9125 11420 c3 -5 10 -10 16 -10 5 0 9 5 9 10 0 6 -7 10 -16 10 -8 0
-12 -4 -9 -10z"/>
<path d="M8992 11368 c6 -18 55 -44 65 -35 9 9 -35 46 -55 47 -8 0 -12 -6 -10
-12z"/>
<path d="M8935 11350 c4 -6 11 -8 16 -5 14 9 11 15 -7 15 -8 0 -12 -5 -9 -10z"/>
<path d="M11345 11340 c3 -5 8 -10 11 -10 2 0 4 5 4 10 0 6 -5 10 -11 10 -5 0
-7 -4 -4 -10z"/>
<path d="M9148 11323 c7 -3 16 -2 19 1 4 3 -2 6 -13 5 -11 0 -14 -3 -6 -6z"/>
<path d="M8968 11313 c7 -3 16 -2 19 1 4 3 -2 6 -13 5 -11 0 -14 -3 -6 -6z"/>
<path d="M11360 11310 c0 -5 5 -10 11 -10 5 0 7 5 4 10 -3 6 -8 10 -11 10 -2
0 -4 -4 -4 -10z"/>
<path d="M9036 11295 c4 -9 1 -15 -7 -15 -8 0 -4 -8 9 -20 12 -12 22 -27 22
-34 0 -8 7 -19 15 -26 21 -18 32 15 13 38 -9 9 -18 29 -22 45 -3 15 -13 27
-21 27 -9 0 -12 -6 -9 -15z"/>
<path d="M11347 11281 c-17 -6 -17 -8 -3 -20 20 -17 21 -31 1 -31 -8 0 -15 -7
-15 -15 0 -8 7 -15 15 -15 8 0 15 7 15 15 0 8 5 15 10 15 12 0 14 47 3 53 -5
3 -16 1 -26 -2z"/>
<path d="M8974 11221 c3 -5 19 -14 36 -19 24 -9 30 -8 30 2 0 8 -7 17 -16 20
-24 9 -56 7 -50 -3z"/>
<path d="M11295 11180 c-4 -6 -3 -10 2 -9 22 4 35 -2 30 -15 -5 -12 2 -13 31
-9 54 8 63 23 14 23 -23 0 -42 5 -42 10 0 13 -27 13 -35 0z"/>
<path d="M9080 11167 c0 -9 5 -19 10 -22 6 -3 10 -15 10 -25 0 -10 3 -20 8
-22 4 -1 15 -16 24 -33 9 -17 27 -32 40 -34 22 -3 22 -2 6 16 -14 15 -15 22
-6 31 9 9 8 12 -5 12 -9 0 -23 14 -32 30 -14 28 -14 30 2 30 24 0 4 17 -29 25
-22 6 -28 4 -28 -8z"/>
<path d="M8990 11156 c0 -10 28 -13 41 -5 10 6 7 9 -13 9 -16 0 -28 -2 -28 -4z"/>
<path d="M11275 11130 c3 -5 10 -10 16 -10 5 0 9 5 9 10 0 6 -7 10 -16 10 -8
0 -12 -4 -9 -10z"/>
<path d="M9032 11118 c3 -7 15 -14 29 -16 23 -2 23 -2 5 13 -24 18 -39 20 -34
3z"/>
<path d="M8970 11106 c0 -2 7 -7 16 -10 8 -3 12 -2 9 4 -6 10 -25 14 -25 6z"/>
<path d="M9227 11099 c7 -7 15 -10 18 -7 3 3 -2 9 -12 12 -14 6 -15 5 -6 -5z"/>
<path d="M11250 11091 c0 -6 5 -13 12 -17 8 -5 6 -11 -6 -19 -14 -11 -14 -14
-1 -25 12 -10 16 -9 21 4 3 9 14 16 24 16 10 0 23 7 30 15 11 13 8 14 -19 9
-33 -7 -45 11 -13 19 9 3 2 5 -15 6 -18 0 -33 -3 -33 -8z"/>
<path d="M8948 11048 c7 -7 27 -12 45 -13 26 0 31 -4 29 -19 -2 -11 1 -15 7
-11 6 3 11 1 11 -4 0 -6 5 -11 10 -11 15 0 11 23 -8 46 -12 14 -31 21 -62 22
-35 2 -41 -1 -32 -10z"/>
<path d="M9076 11035 c4 -8 12 -15 20 -15 20 0 17 7 -6 20 -16 9 -18 8 -14 -5z"/>
<path d="M9150 11006 c0 -8 7 -16 15 -20 8 -3 15 -11 15 -19 0 -18 52 -67 72
-67 9 0 20 -4 23 -10 3 -5 -3 -10 -14 -10 -16 0 -19 -4 -13 -20 4 -12 19 -28
33 -38 14 -9 56 -52 94 -94 37 -43 75 -78 84 -78 9 0 29 -7 45 -15 33 -18 39
-19 31 -5 -4 6 -24 19 -46 30 -21 11 -39 27 -39 35 0 8 -24 32 -53 54 -29 22
-63 58 -77 81 -14 23 -35 54 -47 69 -12 16 -19 31 -16 35 4 4 -3 9 -16 13 -13
3 -20 11 -17 19 3 7 -8 22 -23 34 -34 23 -51 26 -51 6z"/>
<path d="M11198 11013 c6 -2 18 -2 25 0 6 3 1 5 -13 5 -14 0 -19 -2 -12 -5z"/>
<path d="M11345 10990 c3 -5 10 -10 16 -10 5 0 9 5 9 10 0 6 -7 10 -16 10 -8
0 -12 -4 -9 -10z"/>
<path d="M9305 10970 c3 -5 8 -10 11 -10 2 0 4 5 4 10 0 6 -5 10 -11 10 -5 0
-7 -4 -4 -10z"/>
<path d="M8990 10936 c0 -8 5 -18 10 -21 6 -3 10 -1 10 5 0 6 5 8 13 4 8 -5 8
-2 -2 9 -17 21 -31 22 -31 3z"/>
<path d="M9095 10940 c3 -5 15 -10 26 -10 10 0 19 5 19 10 0 6 -12 10 -26 10
-14 0 -23 -4 -19 -10z"/>
<path d="M11200 10940 c0 -13 20 -13 40 0 12 8 9 10 -12 10 -16 0 -28 -4 -28
-10z"/>
<path d="M11111 10921 c-10 -6 -10 -10 -1 -16 13 -8 24 -1 19 14 -3 6 -10 7
-18 2z"/>
<path d="M9152 10908 c3 -7 15 -15 28 -16 21 -3 22 -2 11 12 -16 19 -44 21
-39 4z"/>
<path d="M11288 10903 c6 -2 18 -2 25 0 6 3 1 5 -13 5 -14 0 -19 -2 -12 -5z"/>
<path d="M9078 10873 c6 -2 18 -2 25 0 6 3 1 5 -13 5 -14 0 -19 -2 -12 -5z"/>
<path d="M11320 10860 c0 -5 5 -10 10 -10 6 0 10 5 10 10 0 6 -4 10 -10 10 -5
0 -10 -4 -10 -10z"/>
<path d="M9030 10838 c8 -9 34 -18 58 -21 50 -6 50 1 0 13 -18 4 -42 11 -53
15 -18 7 -18 6 -5 -7z"/>
<path d="M9200 10835 c0 -8 7 -15 15 -15 9 0 12 6 9 15 -4 8 -10 15 -15 15 -5
0 -9 -7 -9 -15z"/>
<path d="M11224 10835 c22 -17 36 -19 36 -6 0 10 -24 21 -43 21 -7 0 -3 -7 7
-15z"/>
<path d="M11186 10801 c-3 -5 4 -11 16 -14 25 -7 33 -3 23 12 -8 13 -32 14
-39 2z"/>
<path d="M9229 10786 c8 -9 20 -16 28 -16 7 0 16 -6 19 -14 7 -18 53 -50 61
-42 10 9 -62 73 -91 80 -26 6 -28 5 -17 -8z"/>
<path d="M11101 10761 c-33 -30 -34 -52 -3 -50 11 0 12 3 5 6 -20 8 -15 23 7
23 11 0 20 5 20 10 0 6 14 10 30 10 17 0 30 5 30 10 0 6 -6 10 -14 10 -8 0
-21 2 -28 5 -8 3 -29 -8 -47 -24z"/>
<path d="M11280 10741 c0 -10 30 -24 37 -17 3 2 -5 9 -16 16 -12 6 -21 7 -21
1z"/>
<path d="M11158 10713 c6 -2 18 -2 25 0 6 3 1 5 -13 5 -14 0 -19 -2 -12 -5z"/>
<path d="M11065 10685 c22 -14 47 -25 55 -25 8 1 -7 12 -35 25 -63 31 -71 31
-20 0z"/>
<path d="M9320 10683 c0 -8 37 -31 135 -84 33 -17 86 -49 118 -70 32 -22 62
-39 67 -39 5 0 33 -14 62 -31 103 -61 396 -122 538 -112 36 3 84 11 107 19 26
8 62 11 94 8 58 -7 159 3 159 15 0 4 -17 5 -37 2 -21 -4 -60 -3 -88 0 -75 11
-117 10 -110 -1 4 -6 -17 -10 -55 -10 -44 0 -59 -3 -54 -12 5 -8 0 -9 -17 -5
-13 4 -52 7 -87 7 -40 0 -61 4 -57 10 4 6 -14 10 -47 10 -29 0 -60 5 -68 10
-11 7 -3 10 28 10 30 0 42 4 40 13 -3 8 -30 13 -79 15 -41 1 -89 10 -107 18
-30 14 -35 14 -51 0 -23 -21 -33 -20 -64 7 -26 22 -54 37 -132 72 -53 23 -26
32 31 10 25 -9 48 -14 52 -10 4 4 1 10 -7 13 -7 2 -22 13 -32 23 -14 14 -27
17 -49 13 -32 -7 -112 18 -141 42 -8 8 -23 14 -32 14 -9 0 -26 10 -37 22 -20
22 -80 37 -80 21z m627 -279 c-3 -3 -12 -4 -19 -1 -8 3 -5 6 6 6 11 1 17 -2
13 -5z"/>
<path d="M11178 10673 c7 -3 16 -2 19 1 4 3 -2 6 -13 5 -11 0 -14 -3 -6 -6z"/>
<path d="M9029 10660 c-16 -11 -15 -12 39 -39 48 -24 47 -46 -1 -36 -30 6 -31
6 -12 -8 11 -8 31 -17 45 -20 14 -3 44 -24 68 -46 26 -24 60 -45 85 -51 23 -6
49 -14 57 -17 37 -14 81 -20 85 -12 8 12 -32 34 -87 49 -29 8 -50 19 -53 30
-8 26 -30 42 -68 49 -19 4 -32 13 -32 23 0 32 -100 94 -126 78z"/>
<path d="M11010 10660 c0 -13 28 -25 38 -16 3 4 0 11 -8 16 -20 13 -30 12 -30
0z"/>
<path d="M9165 10625 c18 -14 42 -24 60 -24 l30 1 -30 10 c-16 6 -39 17 -50
24 -34 24 -42 15 -10 -11z"/>
<path d="M9572 10641 c2 -7 7 -12 11 -12 12 1 9 15 -3 20 -7 2 -11 -2 -8 -8z"/>
<path d="M10955 10636 c-18 -13 -18 -14 8 -9 15 3 27 9 27 14 0 13 -13 11 -35
-5z"/>
<path d="M11235 10610 c3 -5 11 -10 16 -10 6 0 7 5 4 10 -3 6 -11 10 -16 10
-6 0 -7 -4 -4 -10z"/>
<path d="M10855 10603 c-16 -3 -32 -8 -35 -11 -19 -25 -180 -69 -202 -56 -10
6 -28 -12 -28 -28 0 -13 59 -9 95 6 19 8 55 18 80 21 25 4 48 11 51 16 3 5 14
9 25 9 10 0 19 4 19 9 0 5 11 12 25 15 14 4 25 11 25 16 0 10 -3 10 -55 3z"/>
<path d="M9261 10581 c-7 -5 -9 -11 -5 -14 5 -3 15 1 22 9 14 16 5 18 -17 5z"/>
<path d="M11135 10582 c-16 -2 -34 -8 -40 -14 -7 -7 -3 -8 13 -3 14 4 28 1 38
-9 8 -9 21 -16 27 -16 7 0 6 4 -3 10 -12 8 -13 11 -1 19 18 12 3 18 -34 13z"/>
<path d="M11200 10575 c0 -8 7 -15 15 -15 8 0 15 4 15 9 0 5 -7 11 -15 15 -9
3 -15 0 -15 -9z"/>
<path d="M10945 10560 c-11 -4 -24 -5 -29 -2 -5 2 -7 -1 -4 -9 7 -21 44 -23
52 -3 8 21 6 23 -19 14z"/>
<path d="M11000 10551 c0 -8 50 -22 74 -20 14 1 -44 28 -61 29 -7 0 -13 -4
-13 -9z"/>
<path d="M9720 10525 c7 -8 22 -15 34 -15 17 0 18 -2 6 -10 -13 -9 -13 -11 0
-20 8 -5 25 -10 37 -10 39 0 16 37 -35 54 -56 20 -57 20 -42 1z"/>
<path d="M10513 10503 c-13 -2 -23 -8 -23 -13 0 -10 16 -15 73 -25 36 -6 37
-5 25 14 -7 12 -16 21 -20 21 -3 0 -12 2 -20 4 -7 2 -23 1 -35 -1z"/>
<path d="M10775 10480 c-3 -5 0 -10 9 -10 8 0 23 -3 33 -6 16 -5 16 -4 -1 10
-23 19 -32 20 -41 6z"/>
<path d="M10365 10468 c-38 -4 -101 -14 -140 -20 l-70 -12 40 -7 c45 -9 87
-10 68 -2 -27 11 -11 21 17 11 18 -6 46 -7 68 -3 20 4 56 9 80 11 48 4 65 11
57 25 -7 10 -21 10 -120 -3z"/>
<path d="M9115 10460 c3 -5 13 -10 21 -10 8 0 12 5 9 10 -3 6 -13 10 -21 10
-8 0 -12 -4 -9 -10z"/>
<path d="M10694 10434 c-17 -14 -17 -15 -1 -10 10 3 35 6 55 6 28 0 33 3 22
10 -22 14 -54 12 -76 -6z"/>
<path d="M9241 10426 c2 -2 18 -6 34 -10 22 -5 26 -4 15 4 -14 9 -59 15 -49 6z"/>
<path d="M9438 10423 c6 -2 18 -2 25 0 6 3 1 5 -13 5 -14 0 -19 -2 -12 -5z"/>
<path d="M10096 10421 c-18 -7 -18 -8 -2 -14 10 -4 39 -7 64 -7 l47 1 -40 14
c-45 16 -43 16 -69 6z"/>
<path d="M9310 10390 c0 -5 5 -10 10 -10 6 0 10 5 10 10 0 6 -4 10 -10 10 -5
0 -10 -4 -10 -10z"/>
<path d="M9350 10390 c0 -15 41 -38 89 -49 24 -5 47 -15 51 -21 9 -14 62 -9
67 5 3 11 -108 45 -145 45 -11 0 -25 7 -32 15 -14 17 -30 20 -30 5z"/>
<path d="M9148 10363 c6 -2 18 -2 25 0 6 3 1 5 -13 5 -14 0 -19 -2 -12 -5z"/>
<path d="M10910 10360 c0 -5 12 -10 26 -10 14 0 23 4 19 10 -3 6 -15 10 -26
10 -10 0 -19 -4 -19 -10z"/>
<path d="M10745 10340 c-18 -8 -17 -9 8 -9 16 -1 26 3 22 9 -3 6 -7 10 -8 9
-1 0 -11 -4 -22 -9z"/>
<path d="M11028 10343 c7 -3 16 -2 19 1 4 3 -2 6 -13 5 -11 0 -14 -3 -6 -6z"/>
<path d="M10830 10325 c-15 -8 -19 -14 -10 -15 26 0 60 12 60 21 0 13 -21 10
-50 -6z"/>
<path d="M9580 10310 c0 -5 6 -10 14 -10 8 0 18 5 21 10 3 6 -3 10 -14 10 -12
0 -21 -4 -21 -10z"/>
<path d="M9268 10303 c7 -3 16 -2 19 1 4 3 -2 6 -13 5 -11 0 -14 -3 -6 -6z"/>
<path d="M9540 10296 c0 -12 72 -35 98 -30 15 2 41 1 57 -4 17 -5 50 -5 74 0
25 4 47 5 50 0 3 -4 20 -5 36 -2 26 6 23 7 -25 13 -30 4 -100 9 -155 12 -56 2
-109 7 -118 11 -9 3 -17 3 -17 0z"/>
<path d="M9917 10210 c4 -5 31 -11 58 -14 38 -5 44 -4 27 4 -29 12 -96 20 -85
10z"/>
<path d="M10248 10213 c6 -2 18 -2 25 0 6 3 1 5 -13 5 -14 0 -19 -2 -12 -5z"/>
<path d="M10338 10213 c7 -3 16 -2 19 1 4 3 -2 6 -13 5 -11 0 -14 -3 -6 -6z"/>
<path d="M10035 10200 c-3 -5 3 -10 14 -10 12 0 21 5 21 10 0 6 -6 10 -14 10
-8 0 -18 -4 -21 -10z"/>
<path d="M10088 10193 c7 -3 16 -2 19 1 4 3 -2 6 -13 5 -11 0 -14 -3 -6 -6z"/>
<path d="M14557 11724 c-18 -24 -18 -24 11 -24 31 0 82 33 70 46 -4 4 -14 1
-23 -6 -10 -9 -19 -9 -27 -2 -10 7 -18 3 -31 -14z"/>
<path d="M10008 8408 c-13 -18 -27 -40 -33 -49 -5 -9 -28 -43 -51 -75 -38 -55
-88 -145 -189 -339 -22 -44 -46 -89 -52 -100 -14 -23 -102 -209 -132 -277 -12
-26 -21 -54 -21 -62 0 -8 -4 -18 -10 -21 -5 -3 -10 -17 -10 -30 0 -13 -4 -26
-9 -29 -5 -3 -16 -47 -26 -96 -19 -104 -15 -122 42 -228 117 -217 211 -345
292 -399 62 -42 359 -193 378 -193 31 0 214 172 286 269 23 31 47 61 54 66 7
6 40 63 75 128 35 65 68 128 75 140 6 12 14 45 18 72 3 28 8 64 10 81 8 47
-20 172 -55 249 -55 122 -172 348 -215 415 -12 19 -46 73 -77 120 -30 47 -63
99 -73 115 -10 17 -25 37 -34 46 -9 8 -41 46 -71 84 -71 88 -125 145 -138 145
-6 0 -21 -15 -34 -32z m132 -244 c0 -8 7 -14 15 -14 8 0 15 -7 15 -16 0 -8 12
-31 26 -50 15 -19 24 -37 20 -41 -3 -3 3 -12 14 -20 11 -8 20 -19 20 -25 0 -5
13 -27 29 -47 26 -33 47 -78 43 -92 0 -4 10 -17 23 -29 14 -13 25 -27 25 -31
0 -5 14 -31 30 -60 17 -28 28 -54 26 -57 -3 -3 3 -11 14 -19 11 -8 20 -24 20
-36 0 -12 9 -28 20 -35 11 -7 20 -19 20 -27 0 -18 -14 -19 -28 -2 -6 7 -23 14
-39 15 -15 1 -33 9 -39 17 -6 8 -14 12 -18 8 -3 -4 3 -16 15 -29 l20 -22 -43
-6 c-24 -4 -60 -12 -80 -19 -31 -11 -34 -14 -20 -24 30 -19 4 -27 -55 -16 -39
7 -68 7 -92 0 -20 -6 -38 -11 -41 -12 -3 0 -10 -4 -17 -8 -7 -4 -41 -6 -77 -3
-45 3 -66 1 -69 -7 -3 -9 -8 -9 -18 -1 -10 8 -38 8 -99 0 -76 -10 -90 -15
-120 -43 -43 -41 -50 -25 -19 43 41 94 49 112 49 119 0 24 207 433 251 497 11
14 19 29 19 32 0 4 4 12 10 19 5 7 28 36 50 65 l41 53 30 -32 c16 -17 29 -37
29 -45z m215 -663 c-3 -6 -20 -11 -38 -11 -36 0 -26 16 13 22 30 5 34 3 25
-11z m-700 -161 c3 -5 -1 -10 -9 -10 -9 0 -16 5 -16 10 0 6 4 10 9 10 6 0 13
-4 16 -10z"/>
</g>
</svg>
